<svg width="24" height="24" fill="none" xmlns="http://www.w3.org/2000/svg"><g clip-path="url(#a)" fill="#A1A2A9"><path fill-rule="evenodd" clip-rule="evenodd" d="M12 .5C6.063.5 1.25 5.313 1.25 11.25S6.063 22 12 22s10.75-4.813 10.75-10.75S17.937.5 12 .5Zm.75 6.75a.75.75 0 0 0-1.5 0v4.206c0 .319-.122.625-.34.857l-1.456 1.544a.75.75 0 1 0 1.092 1.029L12 13.342a2.75 2.75 0 0 0 .749-1.886V7.25Z"/><path d="M5.969.836A.75.75 0 1 0 5.03-.336l-2.5 2a.75.75 0 1 0 .938 1.172l2.5-2ZM18.968-.336a.75.75 0 0 0-.936 1.172l2.5 2a.75.75 0 1 0 .936-1.172l-2.5-2Z"/></g><defs><clipPath id="a"><path fill="#fff" d="M0 0h24v24H0z"/></clipPath></defs></svg>