<svg width="24" height="25" fill="none" xmlns="http://www.w3.org/2000/svg"><g clip-path="url(#a)" fill="#000001"><path d="M3.167 6.667c0-1.087 0-1.63.178-2.06a2.333 2.333 0 0 1 1.262-1.262c.43-.178.973-.178 2.06-.178 1.087 0 1.63 0 2.06.178a2.333 2.333 0 0 1 1.262 1.262c.178.43.178.973.178 2.06 0 1.087 0 1.63-.178 2.06a2.333 2.333 0 0 1-1.262 1.262c-.43.178-.973.178-2.06.178-1.087 0-1.63 0-2.06-.178a2.333 2.333 0 0 1-1.262-1.262c-.178-.43-.178-.973-.178-2.06Zm11.667 0c0-1.087 0-1.63.177-2.06a2.333 2.333 0 0 1 1.263-1.262c.429-.178.973-.178 2.06-.178 1.087 0 1.63 0 2.06.178a2.333 2.333 0 0 1 1.262 1.262c.178.43.178.973.178 2.06 0 1.087 0 1.63-.178 2.06a2.333 2.333 0 0 1-1.263 1.262c-.428.178-.972.178-2.06.178-1.086 0-1.63 0-2.059-.178a2.333 2.333 0 0 1-1.263-1.262c-.177-.43-.177-.973-.177-2.06ZM3.167 18.334c0-1.087 0-1.631.178-2.06a2.333 2.333 0 0 1 1.262-1.263c.43-.177.973-.177 2.06-.177 1.087 0 1.63 0 2.06.177a2.333 2.333 0 0 1 1.262 1.263c.178.429.178.973.178 2.06 0 1.087 0 1.63-.178 2.06a2.333 2.333 0 0 1-1.262 1.262c-.43.178-.973.178-2.06.178-1.087 0-1.63 0-2.06-.178a2.333 2.333 0 0 1-1.262-1.263c-.178-.428-.178-.972-.178-2.06Zm11.667 0c0-1.087 0-1.631.177-2.06a2.333 2.333 0 0 1 1.263-1.263c.429-.177.973-.177 2.06-.177 1.087 0 1.63 0 2.06.177a2.333 2.333 0 0 1 1.262 1.263c.178.429.178.973.178 2.06 0 1.087 0 1.63-.178 2.06a2.333 2.333 0 0 1-1.263 1.262c-.428.178-.972.178-2.06.178-1.086 0-1.63 0-2.059-.178a2.333 2.333 0 0 1-1.263-1.263c-.177-.428-.177-.972-.177-2.06Z"/></g><defs><clipPath id="a"><path fill="#fff" transform="translate(0 .5)" d="M0 0h24v24H0z"/></clipPath></defs></svg>