<svg width="16" height="16" fill="none" xmlns="http://www.w3.org/2000/svg"><path fill-rule="evenodd" clip-rule="evenodd" d="M14.98 2.39a.5.5 0 0 0-.625-.78l-2.217 1.773a10.756 10.756 0 0 0-.372-.32C10.72 2.207 9.428 1.5 8.001 1.5c-1.428 0-2.718.706-3.766 1.564-1.053.862-1.915 1.922-2.493 2.728l-.048.066c-.349.485-.635.883-.635 1.475 0 .593.286.991.635 1.475l.048.067c.363.505.837 1.11 1.4 1.705l-2.12 1.696a.5.5 0 1 0 .624.781L14.98 2.39ZM5.775 8.473l.809-.646a1.5 1.5 0 0 1 2.21-1.767l.807-.647a2.5 2.5 0 0 0-3.826 3.06Z" fill="#000001"/><path d="m13.797 5.177-3.352 2.681a2.5 2.5 0 0 1-2.444 1.975h-.024l-2.944 2.355c.88.572 1.884.979 2.968.979 1.427 0 2.718-.706 3.765-1.564 1.054-.863 1.915-1.922 2.494-2.728l.047-.067c.349-.484.636-.882.636-1.475 0-.592-.287-.99-.636-1.475l-.047-.066c-.139-.193-.293-.4-.463-.615Z" fill="#000001"/></svg>