<svg width="16" height="16" fill="none" xmlns="http://www.w3.org/2000/svg"><path fill-rule="evenodd" clip-rule="evenodd" d="M4.167 4a3.833 3.833 0 1 1 7.666 0v.742a.502.502 0 0 1-.016.13 3.334 3.334 0 0 1 2.02 2.098C14 7.472 14 8.092 14 9.333c0 1.241 0 1.861-.163 2.364a3.333 3.333 0 0 1-2.14 2.14C11.195 14 10.574 14 9.333 14H6.667c-1.241 0-1.862 0-2.364-.163a3.333 3.333 0 0 1-2.14-2.14C2 11.195 2 10.574 2 9.333c0-1.24 0-1.861.163-2.363a3.333 3.333 0 0 1 2.02-2.099.5.5 0 0 1-.016-.129V4Zm1 .69c.38-.024.856-.024 1.5-.024h2.666c.644 0 1.12 0 1.5.023V4a2.833 2.833 0 1 0-5.666 0v.69ZM8 7.5a.5.5 0 0 1 .5.5v2.666a.5.5 0 0 1-1 0V8a.5.5 0 0 1 .5-.5Z" fill="#A1A2A9"/></svg>