<svg width="24" height="24" fill="none" xmlns="http://www.w3.org/2000/svg"><path fill-rule="evenodd" clip-rule="evenodd" d="m18.005 15.415.262-1.885c.08-.58.155-1.11.22-1.597.135-1 .203-1.5-.096-1.841-.3-.342-.813-.342-1.84-.342H6.949c-1.027 0-1.54 0-1.84.342-.298.342-.231.841-.096 1.84.065.487.14 1.017.22 1.598l.262 1.885c.285 2.048.428 3.073.73 3.895.565 1.539 1.542 2.685 2.709 3.177.623.263 1.354.263 2.816.263 1.462 0 2.193 0 2.816-.263 1.167-.492 2.144-1.638 2.709-3.177.302-.822.445-1.847.73-3.895ZM10.5 11.75a.75.75 0 0 0-1.5 0v8a.75.75 0 0 0 1.5 0v-8Zm4 0a.75.75 0 0 0-1.5 0v8a.75.75 0 0 0 1.5 0v-8Z" fill="#000001"/><path d="M11.75 2A4.75 4.75 0 0 0 7 6.75V7H3.75a.75.75 0 0 0 0 1.5h16a.75.75 0 0 0 0-1.5H16.5v-.25A4.75 4.75 0 0 0 11.75 2Z" fill="#000001"/></svg>