<svg width="16" height="16" fill="none" xmlns="http://www.w3.org/2000/svg"><path d="M6.499 7.333a1.5 1.5 0 1 1 3 0 1.5 1.5 0 0 1-3 0Z" fill="#000001"/><path fill-rule="evenodd" clip-rule="evenodd" d="M4.233 3.064C5.281 2.206 6.571 1.5 8 1.5c1.427 0 2.718.706 3.765 1.564 1.054.862 1.915 1.922 2.494 2.728l.048.066c.348.485.635.883.635 1.475 0 .593-.287.991-.636 1.475l-.047.067c-.579.806-1.44 1.865-2.494 2.728-1.047.858-2.338 1.564-3.765 1.564-1.428 0-2.718-.706-3.766-1.564C3.18 10.74 2.318 9.68 1.74 8.875l-.048-.067c-.349-.484-.635-.882-.635-1.475 0-.592.286-.99.635-1.475l.048-.066c.578-.806 1.44-1.866 2.493-2.728ZM8 4.834a2.5 2.5 0 1 0 0 5 2.5 2.5 0 0 0 0-5Z" fill="#000001"/></svg>