<svg width="109" height="140" viewBox="0 0 109 140" fill="none" xmlns="http://www.w3.org/2000/svg">
<mask id="mask0_302_1192" style="mask-type:luminance" maskUnits="userSpaceOnUse" x="0" y="0" width="109" height="110">
<path d="M108.5 0H0.5V109.511H108.5V0Z" fill="white"/>
</mask>
<g mask="url(#mask0_302_1192)">
<path d="M108.5 0H0.5V109.511H108.5V0Z" fill="white" stroke="#000001" stroke-width="2"/>
</g>
<path d="M72.0433 9.00879L67.6752 62.17L54.4989 53.4846L41.3243 62.1682L36.9544 9.00879L9.38361 9.00879L9.38361 100.502L99.6141 100.502L99.6141 9.00879L72.0433 9.00879ZM54.4989 61.7473L67.031 70.0046L54.4989 78.2637L41.9668 70.0046L41.9677 70.0027L54.4989 61.7473ZM79.5622 77.6287L54.4989 94.1487L29.4346 77.6287L29.4346 70.0046L54.4989 86.5246L79.5622 70.0046V77.6287Z" fill="black"/>
<path d="M14.8617 132.165L16.222 135.742C16.2781 135.915 16.3861 136 16.5545 136H19.219C19.4694 136 19.5515 135.858 19.4694 135.626L14.6933 123.07C13.8598 120.779 13.1127 118.518 12.5298 116.258C12.4995 116.089 12.3873 116 12.1929 116H8.7814C8.58707 116 8.4748 116.089 8.44457 116.289C7.89181 118.518 7.14041 120.779 6.30696 123.07L1.53082 135.626C1.44877 135.858 1.53082 136 1.78129 136H4.44574C4.61415 136 4.72643 135.915 4.78257 135.742L6.14287 132.165H14.8617ZM7.22246 129.277L8.66912 125.531C9.33416 123.724 9.99919 121.664 10.2799 120.236C10.336 119.92 10.6383 119.92 10.7247 120.236C11.0011 121.664 11.6661 123.755 12.3052 125.531L13.7778 129.277H7.22246Z" fill="#000001"/>
<path d="M35.469 116.374C35.5522 116.147 35.469 116 35.215 116H32.4826C32.3162 116 32.2023 116.089 32.1454 116.258L28.1738 126.501C27.4994 128.276 26.9652 130.22 26.7112 131.595C26.685 131.907 26.3171 131.907 26.2602 131.595C26.0062 130.22 25.472 128.276 24.8239 126.501L20.826 116.258C20.7691 116.089 20.6596 116 20.4888 116H17.7871C17.5331 116 17.4455 116.147 17.5331 116.374L22.3761 128.903C23.2213 131.195 23.9219 133.513 24.513 135.742C24.5437 135.915 24.6575 136 24.8546 136H28.1475C28.3446 136 28.4584 135.915 28.4847 135.742C29.0496 133.482 29.7502 131.195 30.5953 128.903L35.469 116.374Z" fill="#000001"/>
<path d="M47.8574 132.165L49.2177 135.742C49.2738 135.915 49.3861 136 49.5545 136H52.219C52.4694 136 52.5515 135.858 52.4694 135.626L47.6933 123.07C46.8598 120.779 46.1084 118.518 45.5254 116.258C45.4995 116.089 45.3873 116 45.1929 116H41.7771C41.5828 116 41.4705 116.089 41.4446 116.289C40.8875 118.518 40.1404 120.779 39.307 123.07L34.5308 135.626C34.4488 135.858 34.5308 136 34.7813 136H37.4457C37.6142 136 37.7221 135.915 37.7783 135.742L39.1385 132.165H47.8574ZM40.2225 129.277L41.6648 125.531C42.3342 123.724 42.9992 121.664 43.2756 120.236C43.3317 119.92 43.6383 119.92 43.7204 120.236C44.0011 121.664 44.6661 123.755 45.3052 125.531L46.7778 129.277H40.2225Z" fill="#000001"/>
<path d="M58.8326 133.108L58.8326 116.316C58.8326 116.116 58.7135 116 58.5072 116H55.8256C55.6193 116 55.5001 116.116 55.5001 116.316L55.5001 135.684C55.5001 135.884 55.6193 136 55.8256 136H68.1747C68.3809 136 68.5001 135.884 68.5001 135.684V133.424C68.5001 133.224 68.3809 133.108 68.1747 133.108H58.8326Z" fill="#000001"/>
<path d="M78.5001 116C73.5283 116 70.5001 119.832 70.5001 125.97C70.5001 132.138 73.5283 136 78.5001 136C83.4474 136 86.5001 132.138 86.5001 125.97C86.5001 119.832 83.4474 116 78.5001 116ZM78.5001 118.86C81.606 118.86 83.4474 121.499 83.4474 125.97C83.4474 130.415 81.606 133.11 78.5001 133.11C75.3697 133.11 73.5283 130.415 73.5283 125.97C73.5283 121.499 75.3697 118.86 78.5001 118.86Z" fill="#000001"/>
<path d="M105.5 116.316C105.5 116.116 105.393 116 105.206 116H102.787C102.601 116 102.494 116.116 102.494 116.316V127.159C102.494 128.676 102.522 129.82 102.709 131.079C102.762 131.422 102.494 131.564 102.361 131.195C102.096 130.621 101.778 129.962 101.431 129.277L95.74 119.177C95.2603 118.291 94.7309 117.201 94.3297 116.231C94.2512 116.089 94.1436 116 93.9865 116H90.7938C90.6076 116 90.5001 116.116 90.5001 116.316V135.684C90.5001 135.884 90.6076 136 90.7938 136H93.2421C93.4282 136 93.5316 135.884 93.5316 135.684V124.899C93.5316 123.355 93.453 122.211 93.2958 120.921C93.2421 120.61 93.5067 120.494 93.668 120.81C93.9327 121.41 94.2512 122.069 94.5985 122.723L100.289 132.823C100.765 133.713 101.298 134.799 101.671 135.769C101.749 135.915 101.857 136 102.018 136H105.206C105.393 136 105.5 135.884 105.5 135.684V116.316Z" fill="#000001"/>
</svg>
