<svg width="90" height="40" viewBox="0 0 90 40" fill="none" xmlns="http://www.w3.org/2000/svg">
<mask id="mask0_861_16153" style="mask-type:luminance" maskUnits="userSpaceOnUse" x="0" y="0" width="38" height="40">
<path d="M38 0H0V40H38V0Z" fill="white"/>
</mask>
<g mask="url(#mask0_861_16153)">
<path d="M38 0H0V40H38V0Z" fill="white" stroke="#000001" stroke-width="2"/>
</g>
<path d="M25.2221 3L23.673 22.7554L19 19.5277L14.3277 22.7547L12.7779 3L3 3L3 37L35 37L35 3L25.2221 3ZM19 22.5983L23.4445 25.6668L19 28.736L14.5555 25.6668L14.5558 25.6661L19 22.5983ZM27.8886 28.5L19 34.639L10.111 28.5L10.111 25.6668L19 31.8058L27.8886 25.6668L27.8886 28.5Z" fill="black"/>
<path d="M49.4268 23.05L50.0811 24.8198C50.1081 24.9056 50.1601 24.9475 50.2411 24.9475H51.5227C51.6431 24.9475 51.6826 24.877 51.6431 24.7626L49.3458 18.5506C48.9449 17.4169 48.5856 16.2987 48.3052 15.1804C48.2907 15.0968 48.2366 15.0527 48.1432 15.0527H46.5023C46.4088 15.0527 46.3548 15.0968 46.3402 15.1958C46.0744 16.2987 45.7129 17.4169 45.3121 18.5506L43.0148 24.7626C42.9753 24.877 43.0148 24.9475 43.1352 24.9475H44.4168C44.4978 24.9475 44.5518 24.9056 44.5788 24.8198L45.2331 23.05H49.4268ZM45.7524 21.6213L46.4482 19.7679C46.7681 18.8742 47.088 17.855 47.223 17.1483C47.25 16.9921 47.3954 16.9921 47.437 17.1483C47.5699 17.855 47.8898 18.8896 48.1972 19.7679L48.9055 21.6213H45.7524Z" fill="#000001"/>
<path d="M59.0639 15.2376C59.104 15.1254 59.0639 15.0527 58.9418 15.0527H57.6275C57.5475 15.0527 57.4927 15.0968 57.4653 15.1804L55.555 20.2477C55.2306 21.1261 54.9737 22.088 54.8515 22.7682C54.8389 22.9223 54.662 22.9223 54.6346 22.7682C54.5124 22.088 54.2555 21.1261 53.9437 20.2477L52.0208 15.1804C51.9934 15.0968 51.9407 15.0527 51.8586 15.0527H50.559C50.4369 15.0527 50.3948 15.1254 50.4369 15.2376L52.7664 21.4364C53.1729 22.5701 53.5099 23.717 53.7942 24.8198C53.8089 24.9056 53.8637 24.9475 53.9585 24.9475H55.5423C55.6371 24.9475 55.6919 24.9056 55.7045 24.8198C55.9762 23.7015 56.3132 22.5701 56.7197 21.4364L59.0639 15.2376Z" fill="#000001"/>
<path d="M64.2669 23.05L64.9212 24.8198C64.9482 24.9056 65.0022 24.9475 65.0832 24.9475H66.3648C66.4853 24.9475 66.5248 24.877 66.4853 24.7626L64.188 18.5506C63.7871 17.4169 63.4257 16.2987 63.1453 15.1804C63.1328 15.0968 63.0788 15.0527 62.9853 15.0527H61.3423C61.2489 15.0527 61.1949 15.0968 61.1824 15.1958C60.9145 16.2987 60.5551 17.4169 60.1542 18.5506L57.8569 24.7626C57.8175 24.877 57.8569 24.9475 57.9774 24.9475H59.259C59.34 24.9475 59.3919 24.9056 59.4189 24.8198L60.0732 23.05H64.2669ZM60.5946 21.6213L61.2883 19.7679C61.6103 18.8742 61.9302 17.855 62.0631 17.1483C62.0901 16.9921 62.2376 16.9921 62.277 17.1483C62.4121 17.855 62.7319 18.8896 63.0393 19.7679L63.7476 21.6213H60.5946Z" fill="#000001"/>
<path d="M68.0853 23.5166V15.209C68.0853 15.11 68.0286 15.0527 67.9305 15.0527H66.6548C66.5567 15.0527 66.5 15.11 66.5 15.209V24.7912C66.5 24.8902 66.5567 24.9475 66.6548 24.9475H72.5294C72.6275 24.9475 72.6842 24.8902 72.6842 24.7912V23.6729C72.6842 23.5739 72.6275 23.5166 72.5294 23.5166H68.0853Z" fill="#000001"/>
<path d="M77.6315 15.0527C75.3255 15.0527 73.921 16.9483 73.921 19.9851C73.921 23.0369 75.3255 24.9475 77.6315 24.9475C79.9262 24.9475 81.3421 23.0369 81.3421 19.9851C81.3421 16.9483 79.9262 15.0527 77.6315 15.0527ZM77.6315 16.4675C79.0721 16.4675 79.9262 17.7733 79.9262 19.9851C79.9262 22.1842 79.0721 23.5178 77.6315 23.5178C76.1796 23.5178 75.3255 22.1842 75.3255 19.9851C75.3255 17.7733 76.1796 16.4675 77.6315 16.4675Z" fill="#000001"/>
<path d="M90 15.209C90 15.11 89.9468 15.0527 89.8548 15.0527H88.6578C88.5657 15.0527 88.5125 15.11 88.5125 15.209V20.5735C88.5125 21.3242 88.5269 21.8899 88.6189 22.5129C88.6455 22.6824 88.5125 22.7528 88.4471 22.5701C88.3161 22.2861 88.1586 21.9603 87.9867 21.6213L85.1713 16.6244C84.934 16.1864 84.6721 15.6471 84.4736 15.1672C84.4348 15.0968 84.3816 15.0527 84.3038 15.0527H82.7242C82.6322 15.0527 82.579 15.11 82.579 15.209V24.7912C82.579 24.8902 82.6322 24.9475 82.7242 24.9475H83.9355C84.0276 24.9475 84.0787 24.8902 84.0787 24.7912V19.4553C84.0787 18.6914 84.0399 18.1257 83.9621 17.4873C83.9355 17.3333 84.0665 17.276 84.1463 17.4323C84.2772 17.7295 84.4348 18.0553 84.6066 18.3789L87.422 23.3758C87.6573 23.816 87.9212 24.3531 88.1054 24.833C88.1443 24.9056 88.1975 24.9475 88.2773 24.9475H89.8548C89.9468 24.9475 90 24.8902 90 24.7912V15.209Z" fill="#000001"/>
</svg>
