<svg width="206" height="88" viewBox="0 0 206 88" fill="none" xmlns="http://www.w3.org/2000/svg">
<g filter="url(#filter0_d_2002_373)">
<rect x="139" y="40.0001" width="32.5269" height="32.5269" rx="3" transform="rotate(-45 139 40.0001)" fill="#1C1C1C"/>
</g>
<ellipse cx="162.051" cy="40.0004" rx="13.1723" ry="13.1724" fill="white"/>
<rect x="153.818" y="31.767" width="16.5823" height="16.5823" rx="3" fill="#1C1C1C"/>
<ellipse cx="162.029" cy="39.9779" rx="5.74005" ry="5.73976" fill="white"/>
<rect width="3.72065" height="3.72065" rx="1" transform="matrix(0.707081 -0.707132 0.707081 0.707132 159.582 40.0001)" fill="#1C1C1C"/>
<path d="M10.764 53.9982H8.082L5.544 49.6242H3.654V53.9982H1.17V41.3982H6.21C7.374 41.3982 8.364 41.8062 9.18 42.6222C9.996 43.4382 10.404 44.4222 10.404 45.5742C10.404 46.3542 10.182 47.0802 9.738 47.7522C9.294 48.4122 8.706 48.9102 7.974 49.2462L10.764 53.9982ZM6.21 43.7202H3.654V47.4462H6.21C6.678 47.4462 7.08 47.2662 7.416 46.9062C7.752 46.5342 7.92 46.0902 7.92 45.5742C7.92 45.0582 7.752 44.6202 7.416 44.2602C7.08 43.9002 6.678 43.7202 6.21 43.7202ZM20.4096 50.4522H13.6236C13.9236 51.5802 14.7696 52.1442 16.1616 52.1442C17.0496 52.1442 17.7216 51.8442 18.1776 51.2442L20.0496 52.3242C19.1616 53.6082 17.8536 54.2502 16.1256 54.2502C14.6376 54.2502 13.4436 53.8002 12.5436 52.9002C11.6436 52.0002 11.1936 50.8662 11.1936 49.4982C11.1936 48.1542 11.6376 47.0262 12.5256 46.1142C13.4016 45.2022 14.5416 44.7462 15.9456 44.7462C17.2776 44.7462 18.3636 45.2022 19.2036 46.1142C20.0676 47.0262 20.4996 48.1542 20.4996 49.4982C20.4996 49.7502 20.4696 50.0682 20.4096 50.4522ZM13.5876 48.6522H18.1776C18.0456 48.0642 17.7756 47.6142 17.3676 47.3022C16.9716 46.9902 16.4976 46.8342 15.9456 46.8342C15.3216 46.8342 14.8056 46.9962 14.3976 47.3202C13.9896 47.6322 13.7196 48.0762 13.5876 48.6522ZM28.8723 46.0602V44.9982H31.1943V57.5982H28.8723V52.9362C28.1883 53.8122 27.2163 54.2502 25.9563 54.2502C24.7443 54.2502 23.7063 53.7942 22.8423 52.8822C21.9903 51.9582 21.5643 50.8302 21.5643 49.4982C21.5643 48.1782 21.9903 47.0562 22.8423 46.1322C23.7063 45.2082 24.7443 44.7462 25.9563 44.7462C27.2163 44.7462 28.1883 45.1842 28.8723 46.0602ZM24.5883 51.3342C25.0803 51.8022 25.6803 52.0362 26.3883 52.0362C27.1083 52.0362 27.7023 51.8022 28.1703 51.3342C28.6383 50.8542 28.8723 50.2422 28.8723 49.4982C28.8723 48.7542 28.6383 48.1482 28.1703 47.6802C27.7023 47.2002 27.1083 46.9602 26.3883 46.9602C25.6683 46.9602 25.0683 47.2002 24.5883 47.6802C24.1203 48.1482 23.8863 48.7542 23.8863 49.4982C23.8863 50.2422 24.1203 50.8542 24.5883 51.3342ZM39.2579 49.8582V44.9982H41.5799V53.9982H39.2579V52.9902C38.7059 53.8302 37.8119 54.2502 36.5759 54.2502C35.5919 54.2502 34.7759 53.9202 34.1279 53.2602C33.4919 52.5882 33.1739 51.6762 33.1739 50.5242V44.9982H35.4959V50.2362C35.4959 50.8242 35.6519 51.2802 35.9639 51.6042C36.2879 51.9282 36.7259 52.0902 37.2779 52.0902C37.8899 52.0902 38.3699 51.9042 38.7179 51.5322C39.0779 51.1482 39.2579 50.5902 39.2579 49.8582ZM52.4545 50.4522H45.6685C45.9685 51.5802 46.8145 52.1442 48.2065 52.1442C49.0945 52.1442 49.7665 51.8442 50.2225 51.2442L52.0945 52.3242C51.2065 53.6082 49.8985 54.2502 48.1705 54.2502C46.6825 54.2502 45.4885 53.8002 44.5885 52.9002C43.6885 52.0002 43.2385 50.8662 43.2385 49.4982C43.2385 48.1542 43.6825 47.0262 44.5705 46.1142C45.4465 45.2022 46.5865 44.7462 47.9905 44.7462C49.3225 44.7462 50.4085 45.2022 51.2485 46.1142C52.1125 47.0262 52.5445 48.1542 52.5445 49.4982C52.5445 49.7502 52.5145 50.0682 52.4545 50.4522ZM45.6325 48.6522H50.2225C50.0905 48.0642 49.8205 47.6142 49.4125 47.3022C49.0165 46.9902 48.5425 46.8342 47.9905 46.8342C47.3665 46.8342 46.8505 46.9962 46.4425 47.3202C46.0345 47.6322 45.7645 48.0762 45.6325 48.6522ZM55.956 47.5542C55.956 47.9382 56.502 48.2682 57.594 48.5442C57.978 48.6282 58.326 48.7302 58.638 48.8502C58.95 48.9582 59.262 49.1202 59.574 49.3362C59.898 49.5402 60.15 49.8162 60.33 50.1642C60.51 50.5122 60.6 50.9142 60.6 51.3702C60.6 52.2942 60.252 53.0082 59.556 53.5122C58.86 54.0042 58.002 54.2502 56.982 54.2502C55.134 54.2502 53.874 53.5362 53.202 52.1082L55.218 50.9742C55.494 51.7542 56.082 52.1442 56.982 52.1442C57.81 52.1442 58.224 51.8862 58.224 51.3702C58.224 50.9862 57.678 50.6562 56.586 50.3802C56.178 50.2722 55.83 50.1642 55.542 50.0562C55.254 49.9482 54.942 49.7922 54.606 49.5882C54.27 49.3722 54.012 49.1022 53.832 48.7782C53.664 48.4422 53.58 48.0522 53.58 47.6082C53.58 46.7202 53.904 46.0242 54.552 45.5202C55.212 45.0042 56.028 44.7462 57 44.7462C57.732 44.7462 58.398 44.9142 58.998 45.2502C59.598 45.5742 60.072 46.0422 60.42 46.6542L58.44 47.7342C58.152 47.1222 57.672 46.8162 57 46.8162C56.7 46.8162 56.448 46.8882 56.244 47.0322C56.052 47.1642 55.956 47.3382 55.956 47.5542ZM66.9776 44.9982V47.2302H64.9436V50.9742C64.9436 51.2862 65.0216 51.5142 65.1776 51.6582C65.3336 51.8022 65.5616 51.8862 65.8616 51.9102C66.1616 51.9222 66.5336 51.9162 66.9776 51.8922V53.9982C65.4056 54.1782 64.2836 54.0342 63.6116 53.5662C62.9516 53.0862 62.6216 52.2222 62.6216 50.9742V47.2302H61.0556V44.9982H62.6216V43.1802L64.9436 42.4782V44.9982H66.9776ZM73.6334 41.3982H78.4934C80.2094 41.3982 81.6254 42.0102 82.7414 43.2342C83.8694 44.4342 84.4334 45.9222 84.4334 47.6982C84.4334 49.4742 83.8694 50.9682 82.7414 52.1802C81.6254 53.3922 80.2094 53.9982 78.4934 53.9982H73.6334V41.3982ZM74.8934 52.8102H78.4934C79.8734 52.8102 81.0014 52.3182 81.8774 51.3342C82.7654 50.3382 83.2094 49.1262 83.2094 47.6982C83.2094 46.2702 82.7654 45.0582 81.8774 44.0622C81.0014 43.0782 79.8734 42.5862 78.4934 42.5862H74.8934V52.8102ZM90.5664 44.7822C91.9104 44.7822 92.9844 45.2562 93.7884 46.2042C94.6164 47.1402 95.0304 48.2502 95.0304 49.5342C95.0304 49.5942 95.0184 49.7802 94.9944 50.0922H87.0924C87.2124 50.9922 87.5964 51.7122 88.2444 52.2522C88.8924 52.7922 89.7024 53.0622 90.6744 53.0622C92.0424 53.0622 93.0084 52.5522 93.5724 51.5322L94.6164 52.1442C94.2204 52.7922 93.6744 53.3022 92.9784 53.6742C92.2944 54.0342 91.5204 54.2142 90.6564 54.2142C89.2404 54.2142 88.0884 53.7702 87.2004 52.8822C86.3124 51.9942 85.8684 50.8662 85.8684 49.4982C85.8684 48.1422 86.3064 47.0202 87.1824 46.1322C88.0584 45.2322 89.1864 44.7822 90.5664 44.7822ZM90.5664 45.9342C89.6304 45.9342 88.8444 46.2102 88.2084 46.7622C87.5844 47.3142 87.2124 48.0402 87.0924 48.9402H93.8064C93.6744 47.9802 93.3084 47.2422 92.7084 46.7262C92.0844 46.1982 91.3704 45.9342 90.5664 45.9342ZM97.5046 47.3562C97.5046 48.0522 98.1226 48.5622 99.3586 48.8862C99.7066 48.9702 99.9346 49.0302 100.043 49.0662C100.151 49.0902 100.361 49.1562 100.673 49.2642C100.997 49.3602 101.219 49.4442 101.339 49.5162C101.471 49.5882 101.651 49.7022 101.879 49.8582C102.107 50.0022 102.269 50.1522 102.365 50.3082C102.461 50.4522 102.551 50.6442 102.635 50.8842C102.719 51.1122 102.761 51.3582 102.761 51.6222C102.761 52.3902 102.455 53.0142 101.843 53.4942C101.255 53.9742 100.475 54.2142 99.5026 54.2142C98.6626 54.2142 97.9366 54.0282 97.3246 53.6562C96.7126 53.2722 96.2806 52.7682 96.0286 52.1442L97.0366 51.5502C97.2046 52.0182 97.5046 52.3902 97.9366 52.6662C98.3806 52.9302 98.9026 53.0622 99.5026 53.0622C100.115 53.0622 100.613 52.9422 100.997 52.7022C101.381 52.4622 101.573 52.1022 101.573 51.6222C101.573 50.9262 100.955 50.4162 99.7186 50.0922C99.3706 50.0082 99.1426 49.9542 99.0346 49.9302C98.9266 49.8942 98.7106 49.8282 98.3866 49.7322C98.0746 49.6242 97.8526 49.5342 97.7206 49.4622C97.6006 49.3902 97.4266 49.2822 97.1986 49.1382C96.9706 48.9822 96.8086 48.8322 96.7126 48.6882C96.6166 48.5322 96.5266 48.3402 96.4426 48.1122C96.3586 47.8722 96.3166 47.6202 96.3166 47.3562C96.3166 46.6242 96.6046 46.0122 97.1806 45.5202C97.7806 45.0282 98.5186 44.7822 99.3946 44.7822C100.115 44.7822 100.751 44.9442 101.303 45.2682C101.867 45.5922 102.281 46.0422 102.545 46.6182L101.555 47.1942C101.219 46.3542 100.499 45.9342 99.3946 45.9342C98.8546 45.9342 98.4046 46.0602 98.0446 46.3122C97.6846 46.5642 97.5046 46.9122 97.5046 47.3562ZM106.113 42.2262C106.113 42.4662 106.029 42.6702 105.861 42.8382C105.693 43.0062 105.489 43.0902 105.249 43.0902C105.009 43.0902 104.805 43.0062 104.637 42.8382C104.469 42.6702 104.385 42.4662 104.385 42.2262C104.385 41.9862 104.469 41.7822 104.637 41.6142C104.805 41.4462 105.009 41.3622 105.249 41.3622C105.489 41.3622 105.693 41.4462 105.861 41.6142C106.029 41.7822 106.113 41.9862 106.113 42.2262ZM105.843 53.9982H104.655V44.9982H105.843V53.9982ZM116.104 46.7622V44.9982H117.292V53.6382C117.292 54.9342 116.848 55.9542 115.96 56.6982C115.072 57.4422 114.01 57.8142 112.774 57.8142C110.674 57.8142 109.252 57.0822 108.508 55.6182L109.552 55.0242C110.092 56.1162 111.166 56.6622 112.774 56.6622C113.806 56.6622 114.616 56.3922 115.204 55.8522C115.804 55.3122 116.104 54.5742 116.104 53.6382V52.2342C115.276 53.5542 114.064 54.2142 112.468 54.2142C111.184 54.2142 110.086 53.7582 109.174 52.8462C108.274 51.9342 107.824 50.8182 107.824 49.4982C107.824 48.1782 108.274 47.0622 109.174 46.1502C110.086 45.2382 111.184 44.7822 112.468 44.7822C114.064 44.7822 115.276 45.4422 116.104 46.7622ZM110.038 52.0362C110.722 52.7202 111.562 53.0622 112.558 53.0622C113.554 53.0622 114.394 52.7202 115.078 52.0362C115.762 51.3282 116.104 50.4822 116.104 49.4982C116.104 48.5022 115.762 47.6622 115.078 46.9782C114.394 46.2822 113.554 45.9342 112.558 45.9342C111.562 45.9342 110.722 46.2822 110.038 46.9782C109.354 47.6622 109.012 48.5022 109.012 49.4982C109.012 50.4822 109.354 51.3282 110.038 52.0362ZM124.019 44.7822C125.099 44.7822 125.957 45.1182 126.593 45.7902C127.229 46.4502 127.547 47.3442 127.547 48.4722V53.9982H126.359V48.4722C126.359 47.6682 126.143 47.0442 125.711 46.6002C125.291 46.1562 124.691 45.9342 123.911 45.9342C123.011 45.9342 122.297 46.2162 121.769 46.7802C121.253 47.3442 120.995 48.1782 120.995 49.2822V53.9982H119.807V44.9982H120.995V46.4022C121.667 45.3222 122.675 44.7822 124.019 44.7822Z" fill="#21252C"/>
<path d="M35.125 22.5001H38.935C39.895 22.5001 40.7 22.8251 41.35 23.4751C42 24.1251 42.325 24.9251 42.325 25.8751C42.325 26.8251 42 27.6251 41.35 28.2751C40.7 28.9251 39.895 29.2501 38.935 29.2501H36.52V33.0001H35.125V22.5001ZM36.52 27.9451H38.935C39.525 27.9451 40.005 27.7501 40.375 27.3601C40.755 26.9501 40.945 26.4551 40.945 25.8751C40.945 25.2751 40.755 24.7801 40.375 24.3901C39.995 24.0001 39.515 23.8051 38.935 23.8051H36.52V27.9451ZM49.4764 26.7901V25.5001H50.7814V33.0001H49.4764V31.7101C48.8364 32.7001 47.8914 33.1951 46.6414 33.1951C45.5814 33.1951 44.6864 32.8151 43.9564 32.0551C43.2164 31.2851 42.8464 30.3501 42.8464 29.2501C42.8464 28.1601 43.2164 27.2301 43.9564 26.4601C44.6964 25.6901 45.5914 25.3051 46.6414 25.3051C47.8914 25.3051 48.8364 25.8001 49.4764 26.7901ZM46.8064 31.9351C47.5664 31.9351 48.2014 31.6801 48.7114 31.1701C49.2214 30.6401 49.4764 30.0001 49.4764 29.2501C49.4764 28.4901 49.2214 27.8551 48.7114 27.3451C48.2014 26.8251 47.5664 26.5651 46.8064 26.5651C46.0564 26.5651 45.4264 26.8251 44.9164 27.3451C44.4064 27.8551 44.1514 28.4901 44.1514 29.2501C44.1514 30.0001 44.4064 30.6401 44.9164 31.1701C45.4264 31.6801 46.0564 31.9351 46.8064 31.9351ZM56.8086 29.1601C57.6386 29.5101 58.0536 30.1051 58.0536 30.9451C58.0536 31.5951 57.7986 32.1351 57.2886 32.5651C56.7786 32.9851 56.0736 33.1951 55.1736 33.1951C53.6736 33.1951 52.6686 32.5951 52.1586 31.3951L53.2536 30.7501C53.5336 31.5701 54.1786 31.9801 55.1886 31.9801C55.6786 31.9801 56.0636 31.8751 56.3436 31.6651C56.6236 31.4551 56.7636 31.1751 56.7636 30.8251C56.7636 30.5251 56.6486 30.2801 56.4186 30.0901C56.1986 29.9001 55.8986 29.8051 55.5186 29.8051H54.4236V28.6201H55.2336C55.6136 28.6201 55.9086 28.5301 56.1186 28.3501C56.3286 28.1601 56.4336 27.9051 56.4336 27.5851C56.4336 27.2551 56.3086 26.9951 56.0586 26.8051C55.8086 26.6051 55.4736 26.5051 55.0536 26.5051C54.2136 26.5051 53.6436 26.8601 53.3436 27.5701L52.2786 26.9551C52.8086 25.8551 53.7336 25.3051 55.0536 25.3051C55.8536 25.3051 56.4936 25.5151 56.9736 25.9351C57.4636 26.3451 57.7086 26.8601 57.7086 27.4801C57.7086 28.2401 57.4086 28.8001 56.8086 29.1601ZM63.6075 25.3051C64.6575 25.3051 65.5525 25.6901 66.2925 26.4601C67.0325 27.2301 67.4025 28.1601 67.4025 29.2501C67.4025 30.3501 67.0325 31.2851 66.2925 32.0551C65.5625 32.8151 64.6675 33.1951 63.6075 33.1951C62.3675 33.1951 61.4225 32.7001 60.7725 31.7101V36.0001H59.4675V25.5001H60.7725V26.7901C61.4225 25.8001 62.3675 25.3051 63.6075 25.3051ZM63.4425 31.9351C64.1925 31.9351 64.8225 31.6801 65.3325 31.1701C65.8425 30.6401 66.0975 30.0001 66.0975 29.2501C66.0975 28.4901 65.8425 27.8551 65.3325 27.3451C64.8225 26.8251 64.1925 26.5651 63.4425 26.5651C62.6825 26.5651 62.0475 26.8251 61.5375 27.3451C61.0275 27.8551 60.7725 28.4901 60.7725 29.2501C60.7725 30.0001 61.0275 30.6401 61.5375 31.1701C62.0475 31.6801 62.6825 31.9351 63.4425 31.9351ZM75.1697 26.7901V25.5001H76.4747V33.0001H75.1697V31.7101C74.5297 32.7001 73.5847 33.1951 72.3347 33.1951C71.2747 33.1951 70.3797 32.8151 69.6497 32.0551C68.9097 31.2851 68.5397 30.3501 68.5397 29.2501C68.5397 28.1601 68.9097 27.2301 69.6497 26.4601C70.3897 25.6901 71.2847 25.3051 72.3347 25.3051C73.5847 25.3051 74.5297 25.8001 75.1697 26.7901ZM72.4997 31.9351C73.2597 31.9351 73.8947 31.6801 74.4047 31.1701C74.9147 30.6401 75.1697 30.0001 75.1697 29.2501C75.1697 28.4901 74.9147 27.8551 74.4047 27.3451C73.8947 26.8251 73.2597 26.5651 72.4997 26.5651C71.7497 26.5651 71.1197 26.8251 70.6097 27.3451C70.0997 27.8551 69.8447 28.4901 69.8447 29.2501C69.8447 30.0001 70.0997 30.6401 70.6097 31.1701C71.1197 31.6801 71.7497 31.9351 72.4997 31.9351ZM81.8569 33.1951C80.7469 33.1951 79.8319 32.8301 79.1119 32.1001C78.3919 31.3601 78.0319 30.4201 78.0319 29.2801C78.0319 27.9901 78.2169 27.0051 78.5869 26.3251C78.9669 25.6351 79.7369 25.0101 80.8969 24.4501C80.9569 24.4201 81.0269 24.3851 81.1069 24.3451C81.1969 24.3051 81.3019 24.2601 81.4219 24.2101C81.5519 24.1501 81.6619 24.1001 81.7519 24.0601L82.5619 23.7001C83.3619 23.3001 83.7869 22.8201 83.8369 22.2601L84.8869 22.8601C84.8169 23.2101 84.7019 23.4901 84.5419 23.7001C84.5319 23.7201 84.5019 23.7651 84.4519 23.8351C84.4019 23.8951 84.3669 23.9401 84.3469 23.9701C84.3269 23.9901 84.2919 24.0251 84.2419 24.0751C84.2019 24.1151 84.1569 24.1551 84.1069 24.1951C84.0669 24.2351 84.0119 24.2751 83.9419 24.3151C83.5719 24.5451 83.3069 24.6951 83.1469 24.7651C83.0869 24.7951 83.0219 24.8251 82.9519 24.8551C82.8919 24.8851 82.8419 24.9101 82.8019 24.9301C82.7619 24.9501 82.7319 24.9651 82.7119 24.9751L82.2169 25.1851L81.7369 25.3801C81.0669 25.6701 80.5719 25.9651 80.2519 26.2651C79.9319 26.5651 79.7019 26.9451 79.5619 27.4051C79.8719 27.0251 80.2619 26.7351 80.7319 26.5351C81.2119 26.3351 81.7019 26.2351 82.2019 26.2351C83.1519 26.2351 83.9469 26.5551 84.5869 27.1951C85.2469 27.8451 85.5769 28.6701 85.5769 29.6701C85.5769 30.6901 85.2269 31.5351 84.5269 32.2051C83.8169 32.8651 82.9269 33.1951 81.8569 33.1951ZM84.2719 29.6701C84.2719 29.0001 84.0519 28.4551 83.6119 28.0351C83.1819 27.6051 82.6119 27.3901 81.9019 27.3901C81.2719 27.3901 80.6919 27.5951 80.1619 28.0051C79.6519 28.4151 79.3969 28.9451 79.3969 29.5951C79.3969 30.2751 79.6319 30.8351 80.1019 31.2751C80.5719 31.7151 81.1569 31.9351 81.8569 31.9351C82.5669 31.9351 83.1419 31.7201 83.5819 31.2901C84.0419 30.8601 84.2719 30.3201 84.2719 29.6701ZM93.2927 32.0551C92.5327 32.8151 91.5977 33.1951 90.4877 33.1951C89.3777 33.1951 88.4427 32.8151 87.6827 32.0551C86.9227 31.2951 86.5427 30.3601 86.5427 29.2501C86.5427 28.1401 86.9227 27.2051 87.6827 26.4451C88.4427 25.6851 89.3777 25.3051 90.4877 25.3051C91.5977 25.3051 92.5327 25.6851 93.2927 26.4451C94.0627 27.2151 94.4477 28.1501 94.4477 29.2501C94.4477 30.3501 94.0627 31.2851 93.2927 32.0551ZM90.4877 31.9201C91.2377 31.9201 91.8677 31.6651 92.3777 31.1551C92.8877 30.6451 93.1427 30.0101 93.1427 29.2501C93.1427 28.4901 92.8877 27.8551 92.3777 27.3451C91.8677 26.8351 91.2377 26.5801 90.4877 26.5801C89.7477 26.5801 89.1227 26.8351 88.6127 27.3451C88.1027 27.8551 87.8477 28.4901 87.8477 29.2501C87.8477 30.0101 88.1027 30.6451 88.6127 31.1551C89.1227 31.6651 89.7477 31.9201 90.4877 31.9201ZM94.8531 25.5001H101.273V26.7601H98.7231V33.0001H97.4181V26.7601H94.8531V25.5001ZM108.334 26.7901V25.5001H109.639V33.0001H108.334V31.7101C107.694 32.7001 106.749 33.1951 105.499 33.1951C104.439 33.1951 103.544 32.8151 102.814 32.0551C102.074 31.2851 101.704 30.3501 101.704 29.2501C101.704 28.1601 102.074 27.2301 102.814 26.4601C103.554 25.6901 104.449 25.3051 105.499 25.3051C106.749 25.3051 107.694 25.8001 108.334 26.7901ZM105.664 31.9351C106.424 31.9351 107.059 31.6801 107.569 31.1701C108.079 30.6401 108.334 30.0001 108.334 29.2501C108.334 28.4901 108.079 27.8551 107.569 27.3451C107.059 26.8251 106.424 26.5651 105.664 26.5651C104.914 26.5651 104.284 26.8251 103.774 27.3451C103.264 27.8551 103.009 28.4901 103.009 29.2501C103.009 30.0001 103.264 30.6401 103.774 31.1701C104.284 31.6801 104.914 31.9351 105.664 31.9351ZM116.806 28.6201V25.5001H118.111V33.0001H116.806V29.8651H112.921V33.0001H111.616V25.5001H112.921V28.6201H116.806ZM126.427 32.0551C125.667 32.8151 124.732 33.1951 123.622 33.1951C122.512 33.1951 121.577 32.8151 120.817 32.0551C120.057 31.2951 119.677 30.3601 119.677 29.2501C119.677 28.1401 120.057 27.2051 120.817 26.4451C121.577 25.6851 122.512 25.3051 123.622 25.3051C124.732 25.3051 125.667 25.6851 126.427 26.4451C127.197 27.2151 127.582 28.1501 127.582 29.2501C127.582 30.3501 127.197 31.2851 126.427 32.0551ZM123.622 31.9201C124.372 31.9201 125.002 31.6651 125.512 31.1551C126.022 30.6451 126.277 30.0101 126.277 29.2501C126.277 28.4901 126.022 27.8551 125.512 27.3451C125.002 26.8351 124.372 26.5801 123.622 26.5801C122.882 26.5801 122.257 26.8351 121.747 27.3451C121.237 27.8551 120.982 28.4901 120.982 29.2501C120.982 30.0101 121.237 30.6451 121.747 31.1551C122.257 31.6651 122.882 31.9201 123.622 31.9201Z" fill="#909090"/>
<defs>
<filter id="filter0_d_2002_373" x="118.243" y="0.242737" width="87.5147" height="87.5148" filterUnits="userSpaceOnUse" color-interpolation-filters="sRGB">
<feFlood flood-opacity="0" result="BackgroundImageFix"/>
<feColorMatrix in="SourceAlpha" type="matrix" values="0 0 0 0 0 0 0 0 0 0 0 0 0 0 0 0 0 0 127 0" result="hardAlpha"/>
<feMorphology radius="2" operator="dilate" in="SourceAlpha" result="effect1_dropShadow_2002_373"/>
<feOffset dy="4"/>
<feGaussianBlur stdDeviation="10"/>
<feColorMatrix type="matrix" values="0 0 0 0 0.279167 0 0 0 0 0.279167 0 0 0 0 0.279167 0 0 0 0.25 0"/>
<feBlend mode="normal" in2="BackgroundImageFix" result="effect1_dropShadow_2002_373"/>
<feBlend mode="normal" in="SourceGraphic" in2="effect1_dropShadow_2002_373" result="shape"/>
</filter>
</defs>
</svg>
