<svg width="109" height="140" fill="none" xmlns="http://www.w3.org/2000/svg"><mask id="a" style="mask-type:luminance" maskUnits="userSpaceOnUse" x="0" y="0" width="109" height="110"><path d="M108.5 0H.5v109.511h108V0Z" fill="#fff"/></mask><g mask="url(#a)"><path d="M108.5 0H.5v109.511h108V0Z" fill="#fff" stroke="#000001" stroke-width="2"/></g><path d="M72.043 9.009 67.675 62.17 54.5 53.485l-13.175 8.683-4.37-53.16H9.384v91.494h90.23V9.009h-27.57ZM54.5 61.747l12.532 8.258L54.5 78.264l-12.532-8.26v-.001L54.5 61.747ZM79.562 77.63 54.5 94.149l-25.064-16.52v-7.624L54.5 86.525l25.063-16.52v7.624Z" fill="#000"/><path d="m14.862 132.165 1.36 3.577c.056.173.164.258.332.258h2.665c.25 0 .332-.142.25-.374l-4.776-12.556c-.833-2.291-1.58-4.552-2.163-6.812-.03-.169-.143-.258-.337-.258H8.78c-.194 0-.306.089-.336.289-.553 2.229-1.305 4.49-2.138 6.781L1.53 135.626c-.082.232 0 .374.25.374h2.665c.168 0 .28-.085.337-.258l1.36-3.577h8.719Zm-7.64-2.888 1.447-3.746c.665-1.807 1.33-3.867 1.61-5.295.057-.316.36-.316.446 0 .276 1.428.941 3.519 1.58 5.295l1.473 3.746H7.222Zm28.247-12.903c.083-.227 0-.374-.254-.374h-2.732c-.167 0-.28.089-.338.258l-3.971 10.243c-.675 1.775-1.209 3.719-1.463 5.094-.026.312-.394.312-.45 0-.255-1.375-.789-3.319-1.437-5.094l-3.998-10.243c-.057-.169-.166-.258-.337-.258h-2.702c-.254 0-.341.147-.254.374l4.843 12.529a76.509 76.509 0 0 1 2.137 6.839c.03.173.144.258.342.258h3.293c.197 0 .31-.085.337-.258a66.146 66.146 0 0 1 2.11-6.839l4.874-12.529Zm12.388 15.791 1.36 3.577c.057.173.17.258.337.258h2.665c.25 0 .332-.142.25-.374l-4.776-12.556c-.833-2.291-1.585-4.552-2.168-6.812-.026-.169-.138-.258-.332-.258h-3.416c-.194 0-.306.089-.332.289-.557 2.229-1.305 4.49-2.138 6.781l-4.776 12.556c-.082.232 0 .374.25.374h2.665c.168 0 .276-.085.332-.258l1.36-3.577h8.72Zm-7.635-2.888 1.443-3.746c.67-1.807 1.334-3.867 1.61-5.295.057-.316.363-.316.445 0 .281 1.428.946 3.519 1.585 5.295l1.473 3.746h-6.556Zm18.611 3.831v-16.792c0-.2-.12-.316-.326-.316h-2.681c-.207 0-.326.116-.326.316v19.368c0 .2.12.316.326.316h12.349c.206 0 .325-.116.325-.316v-2.26c0-.2-.12-.316-.325-.316h-9.342ZM78.5 116c-4.972 0-8 3.832-8 9.97 0 6.168 3.028 10.03 8 10.03 4.947 0 8-3.862 8-10.03 0-6.138-3.053-9.97-8-9.97Zm0 2.86c3.106 0 4.947 2.639 4.947 7.11 0 4.445-1.841 7.14-4.947 7.14-3.13 0-4.972-2.695-4.972-7.14 0-4.471 1.842-7.11 4.972-7.11Zm27-2.544c0-.2-.107-.316-.294-.316h-2.419c-.186 0-.293.116-.293.316v10.843c0 1.517.028 2.661.215 3.92.053.343-.215.485-.348.116a59.602 59.602 0 0 0-.93-1.918l-5.691-10.1a33.227 33.227 0 0 1-1.41-2.946c-.079-.142-.186-.231-.343-.231h-3.193c-.186 0-.294.116-.294.316v19.368c0 .2.108.316.294.316h2.448c.186 0 .29-.116.29-.316v-10.785a30.75 30.75 0 0 0-.236-3.978c-.054-.311.21-.427.372-.111.265.6.583 1.259.93 1.913l5.691 10.1c.476.89 1.009 1.976 1.382 2.946.078.146.186.231.347.231h3.188c.187 0 .294-.116.294-.316v-19.368Z" fill="#000001"/></svg>