<svg width="90" height="40" fill="none" xmlns="http://www.w3.org/2000/svg"><mask id="a" style="mask-type:luminance" maskUnits="userSpaceOnUse" x="0" y="0" width="38" height="40"><path d="M38 0H0v40h38V0Z" fill="#fff"/></mask><g mask="url(#a)"><path d="M38 0H0v40h38V0Z" fill="#fff" stroke="#000001" stroke-width="2"/></g><path d="m25.222 3-1.549 19.755L19 19.528l-4.672 3.227L12.778 3H3v34h32V3h-9.778ZM19 22.598l4.445 3.069L19 28.736l-4.444-3.07L19 22.598Zm8.889 5.902L19 34.639 10.111 28.5v-2.833L19 31.806l8.889-6.14V28.5Z" fill="#000"/><path d="m49.427 23.05.654 1.77c.027.086.08.128.16.128h1.282c.12 0 .16-.071.12-.185l-2.297-6.212a37.402 37.402 0 0 1-1.04-3.37c-.015-.084-.07-.128-.163-.128h-1.64c-.094 0-.148.044-.163.143-.266 1.103-.627 2.22-1.028 3.355l-2.297 6.212c-.04.114 0 .184.12.184h1.282c.08 0 .135-.041.162-.127l.654-1.77h4.194Zm-3.675-1.429.696-1.853c.32-.894.64-1.913.775-2.62.027-.156.172-.156.214 0 .133.707.453 1.742.76 2.62l.709 1.853h-3.154Zm13.312-6.383c.04-.113 0-.185-.122-.185h-1.315c-.08 0-.134.044-.162.127l-1.91 5.068c-.324.878-.581 1.84-.703 2.52-.013.154-.19.154-.217 0a17.59 17.59 0 0 0-.691-2.52L52.02 15.18c-.028-.083-.08-.127-.162-.127h-1.3c-.122 0-.164.072-.122.185l2.33 6.198a38.705 38.705 0 0 1 1.027 3.384c.015.086.07.128.165.128h1.583c.095 0 .15-.042.163-.128.271-1.119.608-2.25 1.015-3.384l2.344-6.198Zm5.203 7.812.654 1.77c.027.086.081.128.162.128h1.282c.12 0 .16-.071.12-.185l-2.297-6.212a37.537 37.537 0 0 1-1.043-3.37c-.012-.084-.066-.128-.16-.128h-1.643c-.093 0-.147.044-.16.143-.268 1.103-.627 2.22-1.028 3.355l-2.297 6.212c-.04.114 0 .184.12.184h1.282c.081 0 .133-.041.16-.127l.654-1.77h4.194Zm-3.672-1.429.693-1.853c.322-.894.642-1.913.775-2.62.027-.156.175-.156.214 0 .135.707.455 1.742.762 2.62l.709 1.853h-3.153Z" fill="#000001"/><path d="M68.085 23.517v-8.308c0-.099-.056-.156-.154-.156h-1.276c-.098 0-.155.057-.155.156v9.582c0 .1.057.157.155.157h5.874c.099 0 .155-.058.155-.157v-1.118c0-.1-.056-.156-.155-.156h-4.444Zm9.547-8.464c-2.306 0-3.711 1.895-3.711 4.932 0 3.052 1.404 4.963 3.71 4.963 2.295 0 3.711-1.911 3.711-4.963 0-3.037-1.416-4.932-3.71-4.932Zm0 1.415c1.44 0 2.294 1.305 2.294 3.517 0 2.2-.854 3.533-2.294 3.533-1.452 0-2.306-1.334-2.306-3.533 0-2.212.854-3.517 2.306-3.517ZM90 15.209c0-.099-.053-.156-.145-.156h-1.197c-.092 0-.145.057-.145.156v5.364c0 .751.014 1.317.106 1.94.026.17-.106.24-.172.057-.13-.284-.288-.61-.46-.949l-2.816-4.997a16.32 16.32 0 0 1-.697-1.457c-.04-.07-.092-.114-.17-.114h-1.58c-.092 0-.145.057-.145.156v9.582c0 .1.053.157.145.157h1.212c.092 0 .143-.058.143-.157v-5.336c0-.764-.04-1.33-.117-1.968-.026-.154.105-.211.184-.055.131.298.289.623.46.947l2.816 4.997c.235.44.5.977.683 1.457.04.073.093.115.172.115h1.578c.092 0 .145-.058.145-.157V15.21Z" fill="#000001"/></svg>