<svg width="25" height="24" fill="none" xmlns="http://www.w3.org/2000/svg"><path d="M21.25 10a.75.75 0 0 0-1.5 0h1.5Zm-16 0a.75.75 0 0 0-1.5 0h1.5Zm5.068 11.272a.75.75 0 0 0 .364 1.456l-.364-1.456Zm.97.531-.183-.727.182.727Zm2.425 0 .182-.727-.182.727Zm.605.925a.75.75 0 0 0 .364-1.456l-.364 1.456Zm-3.555-13.44a.75.75 0 0 0 .474 1.423l-.474-1.423Zm.472.634-.237-.712.237.712Zm2.53 0-.237.711.237-.711Zm-.002.79a.75.75 0 0 0 .474-1.424l-.474 1.423Zm-3.445-4.94a.75.75 0 0 0 .364 1.456l-.364-1.456Zm.97.531-.183-.727.182.727Zm2.425 0 .182-.727-.182.727Zm.605.925a.75.75 0 0 0 .364-1.456l-.364 1.456ZM12.5 21.654v.75-.75ZM15.75 6v4h1.5V6h-1.5Zm-6.5 4V6h-1.5v4h1.5Zm3.25 3.25A3.25 3.25 0 0 1 9.25 10h-1.5a4.75 4.75 0 0 0 4.75 4.75v-1.5ZM15.75 10a3.25 3.25 0 0 1-3.25 3.25v1.5A4.75 4.75 0 0 0 17.25 10h-1.5ZM12.5 2.75A3.25 3.25 0 0 1 15.75 6h1.5a4.75 4.75 0 0 0-4.75-4.75v1.5Zm0-1.5A4.75 4.75 0 0 0 7.75 6h1.5a3.25 3.25 0 0 1 3.25-3.25v-1.5ZM19.75 10a7.25 7.25 0 0 1-7.25 7.25v1.5A8.75 8.75 0 0 0 21.25 10h-1.5Zm-7.25 7.25A7.25 7.25 0 0 1 5.25 10h-1.5a8.75 8.75 0 0 0 8.75 8.75v-1.5ZM11.75 19v2h1.5v-2h-1.5Zm-1.068 3.728.787-.197-.364-1.455-.787.196.364 1.456Zm2.849-.197.787.197.364-1.456-.787-.196-.364 1.455Zm-2.294-11.82.235-.078-.474-1.423-.235.078.474 1.423Zm2.29-.078.236.079.474-1.424-.235-.078-.474 1.423Zm-2.055 0a3.25 3.25 0 0 1 2.056 0l.474-1.423a4.75 4.75 0 0 0-3.004 0l.474 1.423Zm-.79-3.405.787-.197-.364-1.455-.787.196.364 1.456Zm2.849-.197.787.197.364-1.456-.787-.196-.364 1.455Zm-2.062 0a4.25 4.25 0 0 1 2.062 0l.364-1.455a5.75 5.75 0 0 0-2.79 0l.364 1.455ZM13.25 19v-1h-1.5v1h1.5Zm-1.78 3.53a4.25 4.25 0 0 1 1.03-.126v-1.5a5.73 5.73 0 0 0-1.395.172l.364 1.455Zm1.03-.126c.346 0 .692.042 1.03.127l.365-1.455a5.748 5.748 0 0 0-1.395-.172v1.5ZM11.75 21v.654h1.5V21h-1.5Z" fill="#000001"/></svg>