<svg width="25" height="24" fill="none" xmlns="http://www.w3.org/2000/svg"><g clip-path="url(#a)"><path fill-rule="evenodd" clip-rule="evenodd" d="M12.5 4a3.75 3.75 0 1 0 0 7.5 3.75 3.75 0 0 0 0-7.5Zm-2.25 3.75a2.25 2.25 0 1 1 4.5 0 2.25 2.25 0 0 1-4.5 0ZM9.5 13a3.75 3.75 0 1 0 0 7.5h6a3.75 3.75 0 1 0 0-7.5h-6Zm-2.25 3.75A2.25 2.25 0 0 1 9.5 14.5h6a2.25 2.25 0 0 1 0 4.5h-6a2.25 2.25 0 0 1-2.25-2.25Z" fill="#2D264B"/><path d="M8.252 10.389C8.094 10.135 7.798 10 7.5 10a2.25 2.25 0 0 1 0-4.5c.298 0 .594-.135.752-.389l.021-.033c.263-.415.13-1.002-.358-1.055a3.75 3.75 0 1 0 0 7.455c.488-.054.62-.641.358-1.056l-.02-.033Zm-3.044 7.928A.633.633 0 0 0 4.674 18H4.5a2.25 2.25 0 0 1 0-4.5h.174c.22 0 .42-.127.534-.317.277-.462-.023-1.183-.562-1.183H4.5a3.75 3.75 0 1 0 0 7.5h.146c.539 0 .84-.72.562-1.183Zm11.519-7.895c-.263.415-.13 1.002.358 1.055a3.75 3.75 0 1 0 0-7.455c-.488.054-.62.641-.358 1.056l.02.033c.159.254.454.389.753.389a2.25 2.25 0 0 1 0 4.5c-.299 0-.594.135-.752.389a6.175 6.175 0 0 1-.021.033Zm3.065 7.895c-.277.462.023 1.183.562 1.183h.146a3.75 3.75 0 1 0 0-7.5h-.146c-.539 0-.84.72-.562 1.183a.63.63 0 0 0 .534.317h.174a2.25 2.25 0 0 1 0 4.5h-.174a.632.632 0 0 0-.534.317Z" fill="#2D264B"/><path clip-rule="evenodd" d="M12.5 4a3.75 3.75 0 1 0 0 7.5 3.75 3.75 0 0 0 0-7.5Zm-2.25 3.75a2.25 2.25 0 1 1 4.5 0 2.25 2.25 0 0 1-4.5 0ZM9.5 13a3.75 3.75 0 1 0 0 7.5h6a3.75 3.75 0 1 0 0-7.5h-6Zm-2.25 3.75A2.25 2.25 0 0 1 9.5 14.5h6a2.25 2.25 0 0 1 0 4.5h-6a2.25 2.25 0 0 1-2.25-2.25Z" stroke="#000001"/><path d="M8.252 10.389C8.094 10.135 7.798 10 7.5 10a2.25 2.25 0 0 1 0-4.5c.298 0 .594-.135.752-.389l.021-.033c.263-.415.13-1.002-.358-1.055a3.75 3.75 0 1 0 0 7.455c.488-.054.62-.641.358-1.056l-.02-.033Zm-3.044 7.928A.633.633 0 0 0 4.674 18H4.5a2.25 2.25 0 0 1 0-4.5h.174c.22 0 .42-.127.534-.317.277-.462-.023-1.183-.562-1.183H4.5a3.75 3.75 0 1 0 0 7.5h.146c.539 0 .84-.72.562-1.183Zm11.519-7.895c-.263.415-.13 1.002.358 1.055a3.75 3.75 0 1 0 0-7.455c-.488.054-.62.641-.358 1.056l.02.033c.159.254.454.389.753.389a2.25 2.25 0 0 1 0 4.5c-.299 0-.594.135-.752.389a6.175 6.175 0 0 1-.021.033Zm3.065 7.895c-.277.462.023 1.183.562 1.183h.146a3.75 3.75 0 1 0 0-7.5h-.146c-.539 0-.84.72-.562 1.183a.63.63 0 0 0 .534.317h.174a2.25 2.25 0 0 1 0 4.5h-.174a.632.632 0 0 0-.534.317Z" stroke="#000001"/></g><defs><clipPath id="a"><path fill="#fff" transform="translate(.5)" d="M0 0h24v24H0z"/></clipPath></defs></svg>