<svg width="25" height="24" fill="none" xmlns="http://www.w3.org/2000/svg"><path d="M15.75 6a3.25 3.25 0 0 1-3.25 3.25v1.5A4.75 4.75 0 0 0 17.25 6h-1.5ZM12.5 9.25A3.25 3.25 0 0 1 9.25 6h-1.5a4.75 4.75 0 0 0 4.75 4.75v-1.5ZM9.25 6a3.25 3.25 0 0 1 3.25-3.25v-1.5A4.75 4.75 0 0 0 7.75 6h1.5Zm3.25-3.25A3.25 3.25 0 0 1 15.75 6h1.5a4.75 4.75 0 0 0-4.75-4.75v1.5Zm-3 11h6v-1.5h-6v1.5Zm6 6.5h-6v1.5h6v-1.5Zm-6 0A3.25 3.25 0 0 1 6.25 17h-1.5a4.75 4.75 0 0 0 4.75 4.75v-1.5ZM18.75 17a3.25 3.25 0 0 1-3.25 3.25v1.5A4.75 4.75 0 0 0 20.25 17h-1.5Zm-3.25-3.25A3.25 3.25 0 0 1 18.75 17h1.5a4.75 4.75 0 0 0-4.75-4.75v1.5Zm-6-1.5A4.75 4.75 0 0 0 4.75 17h1.5a3.25 3.25 0 0 1 3.25-3.25v-1.5Z" fill="#000001"/></svg>