<svg width="25" height="24" fill="none" xmlns="http://www.w3.org/2000/svg"><path d="M13.25 8a.75.75 0 0 0-1.5 0h1.5Zm-1.5 8a.75.75 0 0 0 1.5 0h-1.5Zm4.5-7a.75.75 0 0 0-1.5 0h1.5Zm-1.5 6a.75.75 0 0 0 1.5 0h-1.5Zm4.5-4a.75.75 0 0 0-1.5 0h1.5Zm-1.5 2a.75.75 0 0 0 1.5 0h-1.5Zm-7.5-4a.75.75 0 1 0-1.5 0h1.5Zm-1.5 6a.75.75 0 0 0 1.5 0h-1.5Zm-1.5-4a.75.75 0 0 0-1.5 0h1.5Zm-1.5 2a.75.75 0 0 0 1.5 0h-1.5Zm11.645-9.975.343-.667-.343.667Zm.43.248-.407.63.407-.63Zm-10.65 0-.407-.63.407.63Zm.43-.248-.343-.667.342.667ZM2.28 12.248l.749-.037-.75.037Zm0-.496-.75-.037.75.037Zm5.324 9.223-.342.667.342-.667Zm-.429-.248.407-.63-.407.63Zm10.65 0 .407.63-.407-.63Zm-.43.248.343.667-.343-.667Zm5.325-8.727.75.037-.75-.037Zm0-.496-.749.037.75-.037ZM11.75 8v8h1.5V8h-1.5Zm3 1v6h1.5V9h-1.5Zm3 2v2h1.5v-2h-1.5Zm-9-2v6h1.5V9h-1.5Zm-3 2v2h1.5v-2h-1.5Zm6.75-7.776c1.287 0 2.203 0 2.933.066.716.064 1.199.186 1.62.402l.685-1.334c-.654-.336-1.345-.489-2.171-.562-.813-.073-1.807-.072-3.067-.072v1.5Zm8.9 3.638c-.63-1.092-1.127-1.953-1.596-2.62-.477-.679-.955-1.201-1.572-1.6l-.814 1.26c.398.258.745.615 1.159 1.202.421.6.88 1.393 1.523 2.508l1.3-.75Zm-4.347-3.17c.125.064.247.135.365.21l.814-1.26a5.742 5.742 0 0 0-.494-.284l-.685 1.334ZM4.9 7.612c.644-1.115 1.103-1.908 1.524-2.508.413-.587.761-.944 1.159-1.201l-.814-1.26c-.617.398-1.095.92-1.572 1.599-.469.667-.965 1.528-1.596 2.62l1.3.75Zm7.6-5.888c-1.26 0-2.254-.001-3.066.072-.826.073-1.518.226-2.17.562l.684 1.334c.421-.216.904-.338 1.62-.402.73-.066 1.646-.066 2.933-.066v-1.5ZM7.583 3.903c.118-.076.24-.147.365-.21l-.685-1.335c-.17.086-.334.182-.494.285l.814 1.26ZM4.899 16.388c-.643-1.114-1.1-1.908-1.41-2.573-.302-.652-.437-1.131-.46-1.604l-1.498.074c.036.733.249 1.409.598 2.161.344.74.841 1.6 1.471 2.692l1.3-.75ZM3.6 6.862c-.63 1.091-1.127 1.952-1.47 2.692-.35.752-.563 1.427-.6 2.16l1.499.075c.023-.473.158-.952.46-1.604.31-.665.767-1.459 1.41-2.573L3.6 6.862Zm-.57 5.348a4.245 4.245 0 0 1 0-.422l-1.498-.074c-.01.19-.01.38 0 .57l1.498-.074Zm9.47 8.565c-1.286 0-2.202 0-2.932-.066-.716-.064-1.199-.186-1.62-.402l-.685 1.334c.653.335 1.345.489 2.171.562.812.073 1.806.072 3.067.072v-1.5Zm-8.9-3.637c.63 1.092 1.127 1.953 1.596 2.62.477.679.955 1.2 1.572 1.6l.814-1.261c-.398-.257-.746-.614-1.159-1.202-.421-.6-.88-1.393-1.524-2.507l-1.299.75Zm4.347 3.17a4.243 4.243 0 0 1-.365-.211l-.814 1.26c.16.103.325.198.494.285l.685-1.334Zm12.153-3.92c-.643 1.114-1.102 1.908-1.523 2.507-.414.588-.761.945-1.159 1.202l.814 1.26c.617-.398 1.095-.92 1.572-1.599.469-.667.965-1.528 1.596-2.62l-1.3-.75Zm-7.6 5.888c1.26 0 2.255 0 3.067-.072.826-.073 1.517-.227 2.17-.562l-.684-1.334c-.421.216-.904.338-1.62.402-.73.066-1.646.066-2.933.066v1.5Zm4.918-2.18c-.118.077-.24.148-.365.212l.685 1.334a5.74 5.74 0 0 0 .494-.285l-.814-1.26Zm3.982-2.958c.63-1.092 1.127-1.952 1.47-2.692.35-.752.563-1.428.6-2.161l-1.499-.074c-.023.473-.159.952-.461 1.604-.309.665-.766 1.459-1.41 2.573l1.3.75Zm-1.3-9.526c.644 1.114 1.101 1.908 1.41 2.573.302.652.438 1.131.461 1.604l1.498-.074c-.036-.734-.25-1.409-.598-2.161-.344-.74-.841-1.6-1.471-2.692l-1.3.75Zm3.37 4.673a6.02 6.02 0 0 0 0-.57l-1.499.074c.007.14.007.281 0 .422l1.498.074Z" fill="#000001"/></svg>