<svg width="25" height="24" fill="none" xmlns="http://www.w3.org/2000/svg"><path d="M17.076 9.48a.75.75 0 1 0-1.152-.96l-3.464 4.156c-.37.445-.598.716-.786.885a.76.76 0 0 1-.163.122l-.011.005-.01-.005a.764.764 0 0 1-.164-.122c-.188-.17-.415-.44-.786-.885L9.076 10.92a.75.75 0 0 0-1.152.96l1.495 1.795c.329.394.625.75.901 1 .301.271.68.513 1.18.513.5 0 .879-.242 1.18-.514.276-.25.572-.605.9-.999l3.496-4.195Z" fill="#2D264B"/><path fill-rule="evenodd" clip-rule="evenodd" d="M16.064 2.757C15.041-.83 9.96-.83 8.936 2.757a2.207 2.207 0 0 1-2.659 1.535C2.66 3.385.12 7.786 2.713 10.465a2.207 2.207 0 0 1 0 3.07c-2.594 2.68-.053 7.08 3.564 6.174a2.207 2.207 0 0 1 2.659 1.535c1.023 3.585 6.105 3.585 7.128 0a2.207 2.207 0 0 1 2.659-1.535c3.617.906 6.158-3.495 3.564-6.174a2.207 2.207 0 0 1 0-3.07c2.594-2.679.053-7.08-3.564-6.173a2.207 2.207 0 0 1-2.659-1.535Zm-5.686.411c.61-2.134 3.635-2.134 4.244 0a3.707 3.707 0 0 0 4.465 2.579c2.154-.54 3.667 2.08 2.122 3.675a3.707 3.707 0 0 0 0 5.156c1.545 1.595.032 4.216-2.122 3.676a3.707 3.707 0 0 0-4.465 2.578c-.61 2.135-3.635 2.135-4.244 0a3.707 3.707 0 0 0-4.466-2.578c-2.153.54-3.666-2.08-2.122-3.676a3.707 3.707 0 0 0 0-5.156c-1.544-1.595-.03-4.215 2.122-3.675a3.707 3.707 0 0 0 4.466-2.579Z" fill="#2D264B"/></svg>