<svg width="25" height="24" fill="none" xmlns="http://www.w3.org/2000/svg"><path fill-rule="evenodd" clip-rule="evenodd" d="M11.5 6.25a2.75 2.75 0 1 0 0 5.5 2.75 2.75 0 0 0 0-5.5ZM10.25 9a1.25 1.25 0 1 1 2.5 0 1.25 1.25 0 0 1-2.5 0Z" fill="#2D264B"/><path fill-rule="evenodd" clip-rule="evenodd" d="M16.963 2.374c-1.142-.124-2.581-.124-4.418-.124h-.09c-1.837 0-3.276 0-4.419.124-1.165.126-2.11.388-2.916.974A5.75 5.75 0 0 0 3.848 4.62c-.586.807-.848 1.75-.974 2.916-.124 1.143-.124 2.582-.124 4.419v.09c0 1.837 0 3.276.124 4.418.126 1.166.388 2.11.974 2.917l.04.053c.346.466.762.877 1.232 1.219.807.586 1.75.848 2.916.974 1.143.124 2.582.124 4.419.124h.09c1.837 0 3.276 0 4.418-.124 1.166-.126 2.11-.388 2.917-.974a5.749 5.749 0 0 0 1.272-1.272c.87-1.197 1.038-2.725 1.083-4.88.015-.732.015-1.56.015-2.494v-.051c0-1.837 0-3.276-.124-4.419-.126-1.165-.388-2.11-.974-2.916a5.75 5.75 0 0 0-1.272-1.272c-.807-.586-1.75-.848-2.916-.974ZM6.002 4.562c.508-.37 1.158-.585 2.196-.697 1.052-.114 2.41-.115 4.302-.115 1.892 0 3.25.001 4.302.115 1.038.112 1.688.328 2.196.697.36.262.678.58.94.94.37.508.585 1.158.697 2.196.114 1.052.115 2.41.115 4.302v.737a4.543 4.543 0 0 0-.305-.238 5.75 5.75 0 0 0-7.791 1.062 6.19 6.19 0 0 0-.483.708l-.125-.025c-1.099-.22-1.772-.354-2.404-.34a5.75 5.75 0 0 0-4.34 2.122c-.271.333-.5.723-.775 1.252a7.631 7.631 0 0 1-.162-.976C4.251 15.25 4.25 13.892 4.25 12c0-1.892.001-3.25.115-4.302.112-1.038.328-1.688.697-2.196.262-.36.58-.678.94-.94Zm13.574 9.16c.248.175.534.45 1.151 1.066-.057 1.97-.255 2.976-.789 3.71-.262.36-.58.678-.94.94-.508.37-1.158.585-2.196.697-1.052.114-2.41.115-4.302.115-.742 0-1.402 0-1.993-.007l2.319-4.103c.13-.23.242-.43.343-.606.32-.558.492-.835.649-1.027a4.25 4.25 0 0 1 5.758-.785ZM8.847 20.13a.755.755 0 0 0-.029.057 14.352 14.352 0 0 1-.62-.053c-1.038-.113-1.688-.328-2.196-.697a4.254 4.254 0 0 1-.612-.541c.562-1.124.794-1.579 1.076-1.925a4.25 4.25 0 0 1 3.208-1.57c.385-.007.81.063 1.71.24L8.847 20.13Z" fill="#2D264B"/><path clip-rule="evenodd" d="M11.5 6.25a2.75 2.75 0 1 0 0 5.5 2.75 2.75 0 0 0 0-5.5ZM10.25 9a1.25 1.25 0 1 1 2.5 0 1.25 1.25 0 0 1-2.5 0Z" stroke="#000001"/><path clip-rule="evenodd" d="M16.963 2.374c-1.142-.124-2.581-.124-4.418-.124h-.09c-1.837 0-3.276 0-4.419.124-1.165.126-2.11.388-2.916.974A5.75 5.75 0 0 0 3.848 4.62c-.586.807-.848 1.75-.974 2.916-.124 1.143-.124 2.582-.124 4.419v.09c0 1.837 0 3.276.124 4.418.126 1.166.388 2.11.974 2.917l.04.053c.346.466.762.877 1.232 1.219.807.586 1.75.848 2.916.974 1.143.124 2.582.124 4.419.124h.09c1.837 0 3.276 0 4.418-.124 1.166-.126 2.11-.388 2.917-.974a5.749 5.749 0 0 0 1.272-1.272c.87-1.197 1.038-2.725 1.083-4.88.015-.732.015-1.56.015-2.494v-.051c0-1.837 0-3.276-.124-4.419-.126-1.165-.388-2.11-.974-2.916a5.75 5.75 0 0 0-1.272-1.272c-.807-.586-1.75-.848-2.916-.974ZM6.002 4.562c.508-.37 1.158-.585 2.196-.697 1.052-.114 2.41-.115 4.302-.115 1.892 0 3.25.001 4.302.115 1.038.112 1.688.328 2.196.697.36.262.678.58.94.94.37.508.585 1.158.697 2.196.114 1.052.115 2.41.115 4.302v.737a4.543 4.543 0 0 0-.305-.238 5.75 5.75 0 0 0-7.791 1.062 6.19 6.19 0 0 0-.483.708l-.125-.025c-1.099-.22-1.772-.354-2.404-.34a5.75 5.75 0 0 0-4.34 2.122c-.271.333-.5.723-.775 1.252a7.631 7.631 0 0 1-.162-.976C4.251 15.25 4.25 13.892 4.25 12c0-1.892.001-3.25.115-4.302.112-1.038.328-1.688.697-2.196.262-.36.58-.678.94-.94Zm13.574 9.16c.248.175.534.45 1.151 1.066-.057 1.97-.255 2.976-.789 3.71-.262.36-.58.678-.94.94-.508.37-1.158.585-2.196.697-1.052.114-2.41.115-4.302.115-.742 0-1.402 0-1.993-.007l2.319-4.103c.13-.23.242-.43.343-.606.32-.558.492-.835.649-1.027a4.25 4.25 0 0 1 5.758-.785ZM8.847 20.13a.755.755 0 0 0-.029.057 14.352 14.352 0 0 1-.62-.053c-1.038-.113-1.688-.328-2.196-.697a4.254 4.254 0 0 1-.612-.541c.562-1.124.794-1.579 1.076-1.925a4.25 4.25 0 0 1 3.208-1.57c.385-.007.81.063 1.71.24L8.847 20.13Z" stroke="#000001"/></svg>