<svg width="201" height="41" viewBox="0 0 201 41" fill="none" xmlns="http://www.w3.org/2000/svg">
<path d="M0.5 -2H10.624C10.9607 -1.17799 11.2862 -0.344868 11.6117 0.477141C15.3942 9.9858 19.1767 19.4944 22.9704 29.0031C24.1265 26.0483 25.2601 23.0824 26.4162 20.1165C28.9079 13.7071 31.3996 7.28649 33.8801 0.877039C34.2505 -0.0893781 34.6209 -1.04469 34.9913 -2H55.722C56.1485 -1.95557 56.5638 -1.96668 56.9903 -1.93335C59.3922 -1.77784 61.8053 -1.22242 63.9491 -0.122705C65.1052 0.443816 66.1827 1.17696 67.1704 1.99897C68.2816 2.89873 69.2805 3.96512 70.0325 5.17592C70.8631 6.4978 71.3906 7.9752 71.6151 9.50814C71.8508 11.2188 71.7835 12.9739 71.3345 14.6513C70.9866 15.9287 70.4029 17.1617 69.6285 18.2392C68.8091 19.3945 67.799 20.3942 66.6766 21.2607C65.5205 22.1604 64.2409 22.8825 62.8716 23.4379C61.435 24.0266 59.9085 24.4043 58.3708 24.6042C60.2789 24.6042 62.187 24.6042 64.095 24.6042C67.2041 30.0695 70.3131 35.5347 73.4221 41H62.9277C59.886 35.5903 56.8556 30.1917 53.8139 24.782H45.1939V41H35.6984C35.6984 28.2811 35.6984 15.551 35.6984 2.83208C35.6535 2.93206 35.6198 3.04314 35.5749 3.15422C30.7823 15.7732 25.9784 28.3921 21.1858 41H18.3124C13.228 28.2144 8.14353 15.4288 3.05907 2.64325V41H0.5V-2ZM45.2163 0.13278V22.6603H52.5231C53.0955 22.6381 53.6567 22.5714 54.2067 22.4381C55.5648 22.116 56.8219 21.3717 57.7759 20.3609C58.73 19.3834 59.4146 18.1726 59.886 16.8951C60.4921 15.2622 60.7391 13.496 60.7727 11.752C60.8064 9.88581 60.5932 7.98631 59.9983 6.20899C59.5493 4.86489 58.8534 3.57634 57.8657 2.53216C56.9341 1.54353 55.722 0.788169 54.4087 0.421597C53.6231 0.21054 52.8037 0.13278 52.0068 0.13278H45.2163ZM90.1347 9.23043C91.3917 8.84164 92.7162 8.66392 94.0406 8.65281C95.4885 8.63059 96.9476 8.7861 98.3057 9.26376C99.2373 9.58589 100.102 10.0747 100.82 10.7412C101.561 11.4299 102.133 12.3074 102.369 13.2849C102.459 13.6626 102.515 14.0403 102.515 14.4291C102.212 14.4291 101.931 14.4291 101.628 14.4291C101.628 13.8181 101.527 13.2072 101.258 12.6518C101.056 12.2074 100.764 11.8187 100.416 11.4965C99.4954 10.6523 98.3282 10.0635 97.0935 9.8636C95.8477 9.66365 94.5569 9.67476 93.3223 9.94136C92.0427 10.2302 90.8305 10.8522 89.8989 11.7631C88.9337 12.6962 88.2827 13.8848 87.8674 15.1511C87.3511 16.7285 87.1715 18.4058 87.1827 20.061C87.1827 21.4606 87.3399 22.8602 87.7439 24.2043C88.1031 25.4596 88.7092 26.6481 89.5398 27.659C90.1571 28.4366 90.9652 29.092 91.908 29.4363C92.7162 29.7474 93.5916 29.8362 94.4447 29.7807C95.5446 29.714 96.6333 29.3919 97.4976 28.7032C98.1149 28.2144 98.5975 27.5368 98.822 26.7926C98.8894 26.6037 98.8557 26.4038 98.8669 26.2038C98.8669 25.6262 98.8669 25.0486 98.8669 24.4709C98.8669 23.3823 98.8894 22.2937 98.8669 21.194H103.603V30.3472H102.863C102.043 29.6029 101.224 28.8587 100.405 28.1033C99.7648 28.9364 98.8557 29.503 97.8904 29.8806C96.7456 30.325 95.5222 30.5249 94.2988 30.5583C92.9407 30.5916 91.5713 30.4472 90.2693 30.0584C87.9572 29.3808 85.9144 27.9256 84.4553 26.0261C83.6023 24.9042 82.9738 23.5934 82.6707 22.216C82.4799 21.3829 82.3789 20.5053 82.3789 19.6389C82.3564 18.0282 82.6819 16.4175 83.3778 14.9623C84.04 13.6071 85.0165 12.4074 86.1726 11.4299C87.3287 10.4412 88.7092 9.68587 90.1683 9.24154L90.1347 9.23043ZM140.104 8.68613C141.922 8.56394 143.774 8.75278 145.491 9.37484C146.793 9.84138 148.005 10.5745 149.027 11.4965C150.104 12.4629 151.013 13.6182 151.62 14.9067C152.315 16.373 152.607 17.9837 152.607 19.5833C152.607 21.3162 152.248 23.038 151.451 24.5709C150.755 25.9039 149.768 27.0703 148.6 28.0145C147.478 28.9365 146.165 29.6252 144.762 30.014C143.774 30.3028 142.753 30.4472 141.731 30.4805C139.924 30.5471 138.095 30.3028 136.422 29.6363C135.053 29.0809 133.796 28.2366 132.763 27.1814C131.675 26.115 130.822 24.8153 130.305 23.3934C129.699 21.7161 129.553 19.8832 129.744 18.117C129.935 16.4508 130.53 14.8401 131.495 13.4516C132.326 12.263 133.381 11.2299 134.604 10.4301C136.232 9.36373 138.162 8.79721 140.104 8.67502V8.68613ZM140.508 9.55257C139.722 9.63033 138.959 9.89692 138.297 10.3301C137.635 10.7523 137.073 11.3188 136.624 11.9631C135.738 13.2072 135.233 14.6846 134.941 16.1731C134.615 17.906 134.582 19.6944 134.739 21.4495C134.907 23.2712 135.345 25.1152 136.31 26.6926C136.95 27.7479 137.859 28.6921 139.015 29.2031C139.913 29.603 140.923 29.7029 141.9 29.5807C142.663 29.4808 143.404 29.203 144.043 28.7698C144.616 28.3921 145.098 27.9034 145.503 27.348C145.996 26.6704 146.412 25.9261 146.715 25.1374C147.366 23.4712 147.59 21.6717 147.624 19.8943C147.624 18.8391 147.579 17.7727 147.433 16.7285C147.197 15.14 146.703 13.5849 145.806 12.2297C145.188 11.2521 144.313 10.3857 143.235 9.93025C142.393 9.56368 141.439 9.4526 140.519 9.55257H140.508ZM108.183 8.89718H118.105C119.665 8.89718 121.248 9.21932 122.594 9.98579C123.212 10.319 123.784 10.7523 124.3 11.2299C124.772 11.6742 125.187 12.1963 125.501 12.774C125.861 13.4405 126.074 14.1847 126.141 14.9401C126.231 15.9065 126.119 16.8951 125.76 17.7949C125.322 18.8946 124.525 19.8166 123.593 20.5275C122.931 21.0274 122.179 21.4384 121.393 21.7161C120.787 21.916 120.159 22.0827 119.53 22.1382C119.979 22.1826 120.428 22.1382 120.877 22.1604H122.359C123.908 24.8931 125.468 27.6146 127.017 30.3361H121.775C120.26 27.6479 118.745 24.9486 117.229 22.2604H112.931V30.3361C111.348 30.3361 109.765 30.3361 108.194 30.3361V8.89718H108.183ZM112.919 9.96358V21.194H116.343C116.747 21.194 117.162 21.1496 117.566 21.0385C118.453 20.783 119.216 20.1609 119.71 19.3945C120.159 18.6947 120.428 17.8949 120.563 17.0728C120.709 16.2175 120.731 15.34 120.63 14.4735C120.529 13.6626 120.316 12.8628 119.934 12.1519C119.609 11.5298 119.149 10.9744 118.565 10.5856C117.948 10.1635 117.184 9.95247 116.421 9.96358H112.931H112.919ZM156.547 8.88608H161.283V21.9272C161.261 22.8158 161.34 23.7156 161.575 24.5709C161.912 25.8484 162.642 27.0481 163.719 27.8478C164.909 28.7254 166.402 29.0809 167.872 29.0698C169.353 29.092 170.88 28.6587 172.025 27.7145C172.418 27.3924 172.754 27.0258 173.046 26.6259C173.046 22.2493 173.046 17.8726 173.046 13.496C173.046 11.9742 173.046 10.4412 173.046 8.9194H177.783C177.783 16.062 177.783 23.2157 177.783 30.3583C177.525 30.3583 177.278 30.3583 177.031 30.3583C175.886 29.3252 174.763 28.2811 173.607 27.248C172.777 28.4477 171.576 29.3586 170.206 29.8584C168.579 30.4694 166.806 30.5805 165.088 30.4361C163.517 30.3028 161.968 29.8695 160.61 29.0586C159.387 28.3366 158.332 27.3258 157.602 26.0927C157.153 25.3152 156.85 24.4487 156.682 23.5712C156.536 22.7936 156.502 22.016 156.524 21.2273V8.90829L156.547 8.88608ZM182.508 8.88608H191.364C192.026 8.88608 192.677 8.86386 193.328 8.93051C194.765 9.0416 196.19 9.47481 197.391 10.2635C198.412 10.9411 199.344 11.7964 199.894 12.8962C200.264 13.6071 200.455 14.4069 200.5 15.2178V15.9287C200.444 16.784 200.231 17.6394 199.815 18.4058C199.176 19.5833 198.132 20.5164 196.964 21.1718C195.595 21.9272 194.013 22.2604 192.452 22.2604H187.256V30.3361H182.519V8.89718L182.508 8.88608ZM187.244 9.96358V21.1829H190.241C190.6 21.1829 190.96 21.2051 191.33 21.1496C192.104 21.0496 192.845 20.6941 193.406 20.1498C193.844 19.7388 194.17 19.2279 194.417 18.6835C194.776 17.8726 194.944 16.984 195 16.0953C195.034 15.34 195 14.5846 194.854 13.8404C194.697 13.085 194.428 12.3407 193.99 11.6854C193.653 11.1855 193.204 10.7523 192.677 10.4523C192.104 10.1302 191.453 9.97469 190.802 9.96358C189.624 9.96358 188.434 9.96358 187.244 9.96358Z" fill="#000001"/>
</svg>
