<svg width="201" height="200" viewBox="0 0 201 200" fill="none" xmlns="http://www.w3.org/2000/svg">
<g clip-path="url(#clip0_2001_6627)">
<path fill-rule="evenodd" clip-rule="evenodd" d="M99.7642 69.19L96.8242 50.21L99.7642 31.23L100.454 31.34L97.5342 50.21L100.444 69.09L99.7642 69.19Z" fill="#000001"/>
<path fill-rule="evenodd" clip-rule="evenodd" d="M73.6147 96.1199L73.0547 95.7099L84.4047 80.2099L84.4447 80.1799L99.8947 68.8599L100.315 69.4199L84.9047 80.7099L73.6147 96.1199Z" fill="#000001"/>
<path fill-rule="evenodd" clip-rule="evenodd" d="M73.2819 96.2601L54.4019 93.3401L35.5319 96.2601L35.4219 95.5601L54.4019 92.6401L73.3819 95.5601L73.2819 96.2601Z" fill="#000001"/>
<path fill-rule="evenodd" clip-rule="evenodd" d="M35.1939 96.1199L23.9139 80.7099L8.50391 69.4199L8.91391 68.8599L24.4139 80.2099L24.4439 80.2599L35.7639 95.7099L35.1939 96.1199Z" fill="#000001"/>
<path fill-rule="evenodd" clip-rule="evenodd" d="M9.05328 69.19L8.36328 69.09L11.2733 50.21L8.36328 31.34L9.05328 31.23L11.9833 50.21L9.05328 69.19Z" fill="#000001"/>
<path fill-rule="evenodd" clip-rule="evenodd" d="M8.91391 31.5701L8.50391 31.0001L23.9139 19.7201L35.1939 4.31006L35.7639 4.72006L24.4139 20.2101L8.91391 31.5701Z" fill="#000001"/>
<path fill-rule="evenodd" clip-rule="evenodd" d="M54.4019 7.78992L35.4219 4.85992L35.5319 4.16992L54.4019 7.07992L73.2819 4.16992L73.3819 4.85992L54.4019 7.78992Z" fill="#000001"/>
<path fill-rule="evenodd" clip-rule="evenodd" d="M99.9047 31.5701L84.4047 20.2101L73.0547 4.72006L73.6147 4.31006L84.9047 19.7201L100.315 31.0001L99.9047 31.5701Z" fill="#000001"/>
<path fill-rule="evenodd" clip-rule="evenodd" d="M54.4016 100.01C26.9416 100.01 4.60156 77.6702 4.60156 50.2102C4.60156 22.7502 26.9416 0.410156 54.4016 0.410156C81.8616 0.410156 104.202 22.7502 104.202 50.2102C104.202 77.6702 81.8716 100.01 54.4016 100.01ZM54.4016 1.11016C27.3316 1.11016 5.30156 23.1402 5.30156 50.2102C5.30156 77.2802 27.3316 99.3102 54.4016 99.3102C81.4716 99.3102 103.502 77.2802 103.502 50.2102C103.502 23.1402 81.4716 1.11016 54.4016 1.11016Z" fill="#000001"/>
<path d="M84.3862 62.4982L66.6719 80.1816L67.1664 80.677L84.8807 62.9936L84.3862 62.4982Z" fill="#000001"/>
<path d="M76.9129 29.5055L76.418 30.0005L84.3588 37.9413L84.8538 37.4463L76.9129 29.5055Z" fill="#000001"/>
<path d="M67.1668 19.7482L66.6719 20.2432L74.6127 28.184L75.1077 27.689L67.1668 19.7482Z" fill="#000001"/>
<path d="M41.6335 19.7426L23.9531 37.46L24.4486 37.9544L42.129 20.237L41.6335 19.7426Z" fill="#000001"/>
<path d="M24.4403 62.4787L23.9453 62.9736L41.6442 80.6725L42.1392 80.1775L24.4403 62.4787Z" fill="#000001"/>
<path d="M66.9206 19.6504H41.8906V20.3504H66.9206V19.6504Z" fill="#000001"/>
<path d="M66.9206 80.0801H41.8906V80.7801H66.9206V80.0801Z" fill="#000001"/>
<path d="M103.853 49.8604H4.95312V50.5603H103.853V49.8604Z" fill="#000001"/>
<path d="M54.7508 0.760254H54.0508V99.6603H54.7508V0.760254Z" fill="#000001"/>
<path d="M19.6786 15.0006L19.1836 15.4956L89.1165 85.4285L89.6114 84.9335L19.6786 15.0006Z" fill="#000001"/>
<path d="M8.83819 30.9622L8.57031 31.6089L99.9697 69.4678L100.238 68.821L8.83819 30.9622Z" fill="#000001"/>
<path d="M73.1208 4.43137L35.0547 95.7446L35.7008 96.014L73.7669 4.70071L73.1208 4.43137Z" fill="#000001"/>
<path d="M35.7991 4.38495L35.1523 4.65283L73.0112 96.0522L73.6579 95.7844L35.7991 4.38495Z" fill="#000001"/>
<path d="M100.003 31.0217L8.55078 68.7529L8.81776 69.4L100.27 31.6688L100.003 31.0217Z" fill="#000001"/>
<path fill-rule="evenodd" clip-rule="evenodd" d="M73.5803 31.0302L74.5803 27.6602L77.9503 26.6602L76.9503 30.0302L73.5703 31.0302H73.5803ZM75.1403 28.2202L74.6203 30.0002L76.4003 29.4702L76.9303 27.6902L75.1503 28.2202H75.1403Z" fill="#000001"/>
<path d="M84.9734 37.7002H84.2734V62.7302H84.9734V37.7002Z" fill="#000001"/>
<path d="M24.5398 37.7002H23.8398V62.7302H24.5398V37.7002Z" fill="#000001"/>
<path d="M71.8096 57.2803L66.6406 62.4492L67.1356 62.9442L72.3046 57.7752L71.8096 57.2803Z" fill="#000001"/>
<path d="M61.9676 32.3092L61.4727 32.8042L66.6416 37.9731L67.1366 37.4782L61.9676 32.3092Z" fill="#000001"/>
<path d="M41.6753 37.4868L36.5117 42.6611L37.0072 43.1556L42.1707 37.9812L41.6753 37.4868Z" fill="#000001"/>
<path d="M42.1786 62.4552L41.6836 62.9502L46.8525 68.1191L47.3475 67.6242L42.1786 62.4552Z" fill="#000001"/>
<path d="M54.3998 32.21H47.0898V32.91H54.3998V32.21Z" fill="#000001"/>
<path d="M61.7123 67.52H54.4023V68.22H61.7123V67.52Z" fill="#000001"/>
<path d="M72.4109 42.9004H71.7109V50.2104H72.4109V42.9004Z" fill="#000001"/>
<path d="M37.1023 50.21H36.4023V57.52H37.1023V50.21Z" fill="#000001"/>
<path d="M73.7084 30.1294L19.3359 85.0742L19.8335 85.5666L74.2059 30.6218L73.7084 30.1294Z" fill="#000001"/>
<path d="M89.1203 14.9964L77.1914 26.9253L77.6864 27.4203L89.6153 15.4914L89.1203 14.9964Z" fill="#000001"/>
<path fill-rule="evenodd" clip-rule="evenodd" d="M54.0825 50.3504C52.9125 47.5104 52.3125 44.4904 52.3125 41.3904C52.3125 28.4304 62.8625 17.8804 75.8225 17.8804C78.9325 17.8804 81.9525 18.4704 84.7825 19.6504L84.5125 20.3004C81.7625 19.1604 78.8325 18.5904 75.8125 18.5904C63.2325 18.5904 53.0025 28.8204 53.0025 41.4004C53.0025 44.4104 53.5825 47.3404 54.7125 50.1004L54.0725 50.3704L54.0825 50.3504Z" fill="#000001"/>
<path fill-rule="evenodd" clip-rule="evenodd" d="M32.9912 82.5503C29.8812 82.5503 26.8612 81.9603 24.0312 80.7803L24.3013 80.1403C27.0513 81.2803 29.9812 81.8503 32.9912 81.8503C45.5712 81.8503 55.8013 71.6203 55.8013 59.0403C55.8013 56.0303 55.2212 53.1003 54.0912 50.3403L54.7313 50.0703C55.9013 52.9103 56.5013 55.9303 56.5013 59.0303C56.5013 71.9903 45.9613 82.5403 32.9912 82.5403V82.5503Z" fill="#000001"/>
<path fill-rule="evenodd" clip-rule="evenodd" d="M84.9813 80.5901L84.3412 80.3201C85.4812 77.5701 86.0513 74.6401 86.0513 71.6201C86.0513 59.0401 75.8212 48.8101 63.2412 48.8101C60.2312 48.8101 57.3013 49.3901 54.5513 50.5301L54.2812 49.8901C57.1212 48.7201 60.1412 48.1201 63.2412 48.1201C76.2012 48.1201 86.7513 58.6701 86.7513 71.6301C86.7513 74.7401 86.1513 77.7601 84.9813 80.5901Z" fill="#000001"/>
<path fill-rule="evenodd" clip-rule="evenodd" d="M45.5803 52.3001C32.6203 52.3001 22.0703 41.7501 22.0703 28.7901C22.0703 25.6801 22.6703 22.6601 23.8403 19.8301L24.4803 20.1001C23.3403 22.8501 22.7603 25.7801 22.7603 28.7901C22.7603 41.3701 32.9903 51.6001 45.5703 51.6001C48.5803 51.6001 51.5103 51.0201 54.2603 49.8801L54.5303 50.5301C51.6903 51.7001 48.6703 52.3001 45.5703 52.3001H45.5803Z" fill="#000001"/>
<path fill-rule="evenodd" clip-rule="evenodd" d="M54.7299 50.3501L54.0898 50.0801C55.2698 47.2401 56.9798 44.6901 59.1798 42.4901C63.6198 38.0501 69.5198 35.6001 75.7999 35.6001C82.0799 35.6001 87.9798 38.0501 92.4198 42.4901C94.6198 44.6901 96.3298 47.2401 97.5098 50.0801L96.8598 50.3501C95.7198 47.6001 94.0598 45.1201 91.9298 42.9901C87.6198 38.6801 81.8899 36.3101 75.7999 36.3101C69.7099 36.3101 63.9798 38.6801 59.6698 42.9901C57.5398 45.1201 55.8799 47.6001 54.7299 50.3501Z" fill="#000001"/>
<path fill-rule="evenodd" clip-rule="evenodd" d="M33.0225 64.8101C27.0025 64.8101 20.9825 62.5201 16.4025 57.9401C14.2025 55.7401 12.4925 53.1901 11.3125 50.3501L11.9525 50.0801C13.0925 52.8301 14.7525 55.3101 16.8925 57.4401C25.7825 66.3301 40.2525 66.3301 49.1525 57.4401C51.2825 55.3101 52.9425 52.8301 54.0925 50.0801L54.7325 50.3501C53.5525 53.1901 51.8425 55.7401 49.6425 57.9401C45.0625 62.5201 39.0425 64.8101 33.0225 64.8101Z" fill="#000001"/>
<path fill-rule="evenodd" clip-rule="evenodd" d="M54.5434 93.3101L54.2734 92.6701C57.0234 91.5301 59.5034 89.8701 61.6334 87.7301C65.9434 83.4201 68.3134 77.6901 68.3134 71.6001C68.3134 65.5101 65.9434 59.7801 61.6334 55.4701C59.5034 53.3401 57.0234 51.6801 54.2734 50.5301L54.5434 49.8901C57.3834 51.0701 59.9334 52.7801 62.1334 54.9801C66.5734 59.4201 69.0234 65.3201 69.0234 71.6001C69.0234 77.8801 66.5834 83.7901 62.1334 88.2201C59.9434 90.4201 57.3834 92.1301 54.5534 93.3101H54.5434Z" fill="#000001"/>
<path fill-rule="evenodd" clip-rule="evenodd" d="M54.2722 50.5404C51.4322 49.3604 48.8822 47.6503 46.6822 45.4503C37.5122 36.2803 37.5122 21.3704 46.6822 12.2004C48.8822 10.0004 51.4322 8.29035 54.2722 7.11035L54.5422 7.75035C51.7922 8.89035 49.3122 10.5503 47.1822 12.6903C38.2922 21.5803 38.2922 36.0503 47.1822 44.9503C49.3122 47.0803 51.7922 48.7403 54.5422 49.8904L54.2722 50.5303V50.5404Z" fill="#000001"/>
<path fill-rule="evenodd" clip-rule="evenodd" d="M41.0703 136.33C41.0703 136.33 43.6003 136.58 45.1103 136.58C46.6203 136.58 47.7603 136.42 48.9503 135.59C50.2603 134.68 50.6703 133.29 50.6703 132.28C50.6703 130.95 50.2103 128.74 46.6603 127.91C43.9003 127.27 43.0403 126.79 42.5903 125.85C42.1703 124.97 42.4703 123.71 43.2003 123.19C43.8403 122.74 44.3103 122.32 46.1703 122.45L49.3603 124.05L49.9503 122.23C49.1103 122.1 48.1403 121.98 46.5003 121.92C41.6503 121.76 41.0703 124.55 41.0703 125.72C41.0703 127.74 42.4503 129.25 45.4003 129.83C48.7503 130.71 49.1803 132.21 49.1503 133.3C49.1103 134.47 48.4203 135.7 47.0703 135.95C46.3203 136.09 45.9203 136.12 44.9203 136.05L41.7103 134.42L41.0703 136.34V136.33Z" fill="#19191A"/>
<path fill-rule="evenodd" clip-rule="evenodd" d="M0.929688 122.17V124.19L3.99969 122.67H5.98969V135.21L4.96969 136.32H9.01969L8.00969 135.21V122.67H10.0097L13.0597 124.19V122.17H0.929688Z" fill="#19191A"/>
<path fill-rule="evenodd" clip-rule="evenodd" d="M25.7016 124.03L28.3716 130.26H23.0316L25.7016 124.03ZM19.8516 136.32H22.0016L21.2216 134.49L22.8216 130.76H28.5916L30.5016 135.21L29.9716 136.32H33.1816L27.1216 122.17H25.9316L19.8716 136.32H19.8516Z" fill="#19191A"/>
<path fill-rule="evenodd" clip-rule="evenodd" d="M81.9492 122.17L82.9592 123.29V135.21L81.9492 136.32H85.9892L84.9792 135.21V123.29L85.9892 122.17H81.9492Z" fill="#19191A"/>
<path fill-rule="evenodd" clip-rule="evenodd" d="M68.4594 122.17L69.4694 123.29V128.74H62.3894V123.29L63.3994 122.17H59.3594L60.3694 123.29V135.21L59.3594 136.32H63.4094L62.3894 135.21V129.25H69.4694V135.21L68.4594 136.32H72.4994L71.4894 135.21V123.29L72.4994 122.17H68.4594Z" fill="#19191A"/>
<path fill-rule="evenodd" clip-rule="evenodd" d="M98.5183 129.75V122.67H100.288C102.278 122.67 103.578 124.4 103.578 126.21C103.578 128.3 102.358 129.74 100.548 129.74H98.5283L98.5183 129.75ZM107.068 136.32L105.828 135.21L103.068 129.79C103.648 129.57 103.968 129.3 104.428 128.96C105.158 128.41 105.708 127.27 105.648 125.96C105.578 124.55 104.758 123.33 103.568 122.77C102.378 122.2 101.038 122.17 99.5283 122.17H95.4883L96.4983 123.28V135.21L95.4883 136.32H99.5283L98.5183 135.21V130.25H99.8283C100.088 130.25 100.478 130.25 100.928 130.23L104.088 136.32H107.068Z" fill="#19191A"/>
</g>
<defs>
<clipPath id="clip0_2001_6627">
<rect width="200" height="200" fill="white" transform="translate(0.5)"/>
</clipPath>
</defs>
</svg>
