<svg width="201" height="200" viewBox="0 0 201 200" fill="none" xmlns="http://www.w3.org/2000/svg">
<path d="M1.17188 125.72V106.49H10.1619C14.3419 106.49 16.6219 109.32 16.6219 112.69C16.6219 116.06 14.3119 118.89 10.1619 118.89H5.26188V125.72H1.17188ZM12.4419 112.69C12.4419 111.08 11.2319 110.1 9.61188 110.1H5.26188V115.29H9.61188C11.2219 115.29 12.4419 114.28 12.4419 112.7" fill="#000001"/>
<path d="M18.1719 118.74C18.1719 114.79 20.9419 111.45 25.5219 111.45C30.1019 111.45 32.9019 114.79 32.9019 118.74C32.9019 122.69 30.1319 126.06 25.5219 126.06C20.9119 126.06 18.1719 122.72 18.1719 118.74ZM29.1019 118.74C29.1019 116.58 27.8019 114.7 25.5319 114.7C23.2619 114.7 21.9819 116.57 21.9819 118.74C21.9819 120.91 23.2519 122.81 25.5319 122.81C27.8119 122.81 29.1019 120.94 29.1019 118.74Z" fill="#000001"/>
<path d="M35.3008 118.74C35.3008 114.47 38.3808 111.45 42.6808 111.45C45.5308 111.45 47.2608 112.69 48.1908 113.96L45.8008 116.21C45.1408 115.23 44.1308 114.71 42.8608 114.71C40.6408 114.71 39.0808 116.32 39.0808 118.75C39.0808 121.18 40.6408 122.82 42.8608 122.82C44.1308 122.82 45.1408 122.24 45.8008 121.32L48.1908 123.54C47.2708 124.84 45.5408 126.08 42.6808 126.08C38.3908 126.08 35.3008 123.05 35.3008 118.76" fill="#000001"/>
<path d="M54.2923 125.72V115H50.4023V111.79H61.8823V115H57.9823V125.72H54.2923Z" fill="#000001"/>
<path d="M63.293 118.74C63.293 114.7 66.263 111.45 70.503 111.45C74.743 111.45 77.483 114.56 77.483 119.12V119.93H67.133C67.363 121.69 68.773 123.16 71.143 123.16C72.323 123.16 73.973 122.64 74.863 121.78L76.483 124.14C75.103 125.41 72.913 126.07 70.743 126.07C66.503 126.07 63.303 123.22 63.303 118.75M70.513 114.37C68.233 114.37 67.253 116.07 67.083 117.45H73.943C73.853 116.13 72.933 114.37 70.513 114.37Z" fill="#000001"/>
<path d="M88.7425 125.72L85.5725 121.02L82.3725 125.72H78.3125L83.2425 118.57L78.5925 111.79H82.6925L85.5725 116.09L88.4225 111.79H92.5225L87.8525 118.57L92.8325 125.72H88.7425Z" fill="#000001"/>
<path d="M80.5236 43.6097V12.8497H49.9336L61.8436 0.929688H92.5236V15.9297V31.6097L80.5236 43.6097Z" fill="#000001"/>
<path d="M92.5236 92.2601L61.8536 92.2501L49.9336 80.3401H80.5236V49.6201L92.5236 61.6201V92.2601Z" fill="#000001"/>
<path d="M1.20312 31.6097V15.9297V0.929688H31.8831L43.7931 12.8497H13.2031V43.6097L1.20312 31.6097Z" fill="#000001"/>
<path d="M1.20312 61.6201L13.2031 49.6201V80.3401H43.7931L31.8731 92.2501L1.20312 92.2601V61.6201Z" fill="#000001"/>
</svg>
