<svg width="201" height="200" viewBox="0 0 201 200" fill="none" xmlns="http://www.w3.org/2000/svg">
<g clip-path="url(#clip0_2001_7901)">
<path d="M58.9375 0.0112305V28.0096H62.4627V16.7899H70.7786C76.7783 16.7899 80.2696 13.6489 80.2696 8.36104C80.2696 3.0732 76.7783 0.0112305 70.7786 0.0112305H58.9375ZM62.4627 13.6602V3.15229H70.1911C74.5411 3.15229 76.6992 4.91491 76.6992 8.40624C76.6992 11.8976 74.5411 13.6602 70.1911 13.6602H62.4627Z" fill="#000001"/>
<path d="M85.8624 0.0112305V28.0096H89.3877V16.2815H97.5454C98.325 16.2815 99.0707 16.2476 99.8165 16.1685L104.008 28.0096H107.658L103.183 15.3437C106.042 14.0443 107.454 11.6603 107.454 8.16896C107.454 3.02801 104.076 0.0112305 98.2346 0.0112305H85.8398H85.8624ZM89.3877 13.1517V3.15229H97.7375C102.088 3.15229 103.895 4.88101 103.895 8.16896C103.895 11.4569 101.85 13.1517 97.7375 13.1517H89.3877Z" fill="#000001"/>
<path d="M113.906 28.0096H117.431V0.0112305H113.906V28.0096Z" fill="#000001"/>
<path d="M124.82 0.0112305V28.0096H135.294C139.486 28.0096 142.672 26.7555 144.898 24.2472C147.135 21.7388 148.231 18.3266 148.231 14.0104C148.231 9.6943 147.135 6.28206 144.898 3.77373C142.706 1.2654 139.486 0.0112305 135.294 0.0112305H124.82ZM128.346 24.8008V3.23139H135.283C138.503 3.23139 140.853 4.24828 142.379 6.24817C143.904 8.24806 144.65 10.8355 144.65 14.0104C144.65 17.1854 143.904 19.818 142.379 21.8179C140.853 23.8178 138.492 24.8008 135.283 24.8008H128.346Z" fill="#000001"/>
<path d="M157.498 15.1065H170.356V11.8863H157.498V3.22016H173.463V0H153.973V27.9984H174.096V24.7783H157.509V15.0952L157.498 15.1065Z" fill="#000001"/>
<path d="M200.489 28.0096L192.139 13.0726L199.393 0.0112305H195.63L189.438 11.1857H187.992L181.88 0.0112305H178.072L185.247 13.2308L176.852 28.0209H180.693L187.947 15.3098H189.393L196.455 28.0209H200.5L200.489 28.0096Z" fill="#000001"/>
<path d="M38.1815 0.327637V20.4395L27.9787 28.0436V7.93173H14.8269L25.0297 0.327637H38.1815ZM10.7028 10.9824L0.5 18.5865H13.6518V47.2289L23.8546 39.6249V10.9824H10.7028Z" fill="#000001"/>
</g>
<defs>
<clipPath id="clip0_2001_7901">
<rect width="200" height="200" fill="white" transform="translate(0.5)"/>
</clipPath>
</defs>
</svg>
