<svg width="201" height="200" fill="none" xmlns="http://www.w3.org/2000/svg"><g clip-path="url(#a)" fill="#000001"><path d="M58.938.011V28.01h3.525V16.79h8.316c6 0 9.49-3.141 9.49-8.429S76.78.011 70.78.011H58.938Zm3.525 13.65V3.151h7.728c4.35 0 6.508 1.763 6.508 5.254 0 3.492-2.158 5.254-6.508 5.254h-7.728ZM85.862.011V28.01h3.526V16.28h8.157c.78 0 1.526-.033 2.272-.112l4.191 11.84h3.65l-4.475-12.665c2.859-1.3 4.271-3.684 4.271-7.175 0-5.141-3.378-8.158-9.22-8.158H85.84h.022Zm3.526 13.14V3.153h8.35c4.35 0 6.157 1.729 6.157 5.017 0 3.288-2.045 4.983-6.157 4.983h-8.35Zm24.518 14.859h3.525v-28h-3.525v28ZM124.82.011V28.01h10.474c4.192 0 7.378-1.255 9.604-3.763 2.237-2.508 3.333-5.92 3.333-10.237 0-4.316-1.096-7.728-3.333-10.236-2.192-2.509-5.412-3.763-9.604-3.763H124.82Zm3.526 24.79V3.23h6.937c3.22 0 5.57 1.017 7.096 3.017 1.525 2 2.271 4.587 2.271 7.762s-.746 5.808-2.271 7.808c-1.526 2-3.887 2.983-7.096 2.983h-6.937Zm29.152-9.694h12.858v-3.22h-12.858V3.22h15.965V0h-19.49v27.998h20.123v-3.22h-16.587v-9.683l-.011.011Zm42.991 12.903-8.35-14.937L199.393.01h-3.763l-6.192 11.175h-1.446L181.88.01h-3.808l7.175 13.22-8.395 14.79h3.841l7.254-12.711h1.446l7.062 12.71h4.045l-.011-.01ZM38.181.328v20.111L27.98 28.044V7.932H14.827L25.03.328h13.15ZM10.703 10.982.5 18.587h13.152v28.642l10.203-7.604V10.982H10.703Z"/></g><defs><clipPath id="a"><path fill="#fff" transform="translate(.5)" d="M0 0h200v200H0z"/></clipPath></defs></svg>