<svg width="201" height="200" fill="none" xmlns="http://www.w3.org/2000/svg"><g clip-path="url(#a)"><path fill-rule="evenodd" clip-rule="evenodd" d="m99.764 69.19-2.94-18.98 2.94-18.98.69.11-2.92 18.87 2.91 18.88-.68.1Z" fill="#000001"/><path fill-rule="evenodd" clip-rule="evenodd" d="m73.615 96.12-.56-.41 11.35-15.5.04-.03 15.45-11.32.42.56-15.41 11.29-11.29 15.41Z" fill="#000001"/><path fill-rule="evenodd" clip-rule="evenodd" d="m73.282 96.26-18.88-2.92-18.87 2.92-.11-.7 18.98-2.92 18.98 2.92-.1.7Z" fill="#000001"/><path fill-rule="evenodd" clip-rule="evenodd" d="m35.194 96.12-11.28-15.41-15.41-11.29.41-.56 15.5 11.35.03.05 11.32 15.45-.57.41Z" fill="#000001"/><path fill-rule="evenodd" clip-rule="evenodd" d="m9.053 69.19-.69-.1 2.91-18.88-2.91-18.87.69-.11 2.93 18.98-2.93 18.98Z" fill="#000001"/><path fill-rule="evenodd" clip-rule="evenodd" d="m8.914 31.57-.41-.57 15.41-11.28 11.28-15.41.57.41-11.35 15.49-15.5 11.36Z" fill="#000001"/><path fill-rule="evenodd" clip-rule="evenodd" d="m54.402 7.79-18.98-2.93.11-.69 18.87 2.91 18.88-2.91.1.69-18.98 2.93Z" fill="#000001"/><path fill-rule="evenodd" clip-rule="evenodd" d="m99.905 31.57-15.5-11.36-11.35-15.49.56-.41 11.29 15.41L100.315 31l-.41.57Z" fill="#000001"/><path fill-rule="evenodd" clip-rule="evenodd" d="M54.402 100.01c-27.46 0-49.8-22.34-49.8-49.8 0-27.46 22.34-49.8 49.8-49.8 27.46 0 49.8 22.34 49.8 49.8 0 27.46-22.33 49.8-49.8 49.8Zm0-98.9c-27.07 0-49.1 22.03-49.1 49.1s22.03 49.1 49.1 49.1 49.1-22.03 49.1-49.1-22.03-49.1-49.1-49.1Z" fill="#000001"/><path d="M84.386 62.498 66.672 80.182l.494.495 17.715-17.683-.495-.496Zm-7.473-32.992-.495.494 7.94 7.941.496-.495-7.941-7.94Zm-9.746-9.758-.495.495 7.94 7.941.496-.495-7.941-7.94Zm-25.534-.005L23.953 37.46l.496.494 17.68-17.717-.495-.494ZM24.44 62.479l-.495.495 17.7 17.699.494-.496L24.44 62.48Z" fill="#000001"/><path d="M66.92 19.65H41.89v.7h25.03v-.7Zm0 60.43H41.89v.7h25.03v-.7Zm36.933-30.22h-98.9v.7h98.9v-.7Z" fill="#000001"/><path d="M54.75.76h-.7v98.9h.7V.76Z" fill="#000001"/><path d="m19.679 15-.495.496 69.933 69.933.494-.496L19.68 15.001Z" fill="#000001"/><path d="m8.838 30.962-.268.647 91.4 37.859.268-.647-91.4-37.859Z" fill="#000001"/><path d="M73.12 4.431 35.056 95.745l.646.269L73.767 4.701l-.646-.27Z" fill="#000001"/><path d="m35.8 4.385-.648.268 37.86 91.4.646-.269L35.799 4.385Z" fill="#000001"/><path d="M100.003 31.022 8.551 68.752l.267.648 91.452-37.731-.267-.647Z" fill="#000001"/><path fill-rule="evenodd" clip-rule="evenodd" d="m73.58 31.03 1-3.37 3.37-1-1 3.37-3.38 1h.01Zm1.56-2.81L74.62 30l1.78-.53.53-1.78-1.78.53h-.01Z" fill="#000001"/><path d="M84.973 37.7h-.7v25.03h.7V37.7Zm-60.433 0h-.7v25.03h.7V37.7Zm47.27 19.58-5.17 5.17.496.494 5.169-5.169-.495-.495Zm-9.842-24.97-.495.494 5.169 5.17.495-.496-5.17-5.169Zm-20.293 5.177-5.163 5.174.495.495 5.164-5.175-.496-.494Zm.504 24.968-.495.495 5.169 5.17.494-.496-5.168-5.169ZM54.4 32.21h-7.31v.7h7.31v-.7Zm7.312 35.31h-7.31v.7h7.31v-.7ZM72.41 42.9h-.7v7.31h.7V42.9Zm-35.308 7.31h-.7v7.31h.7v-7.31Z" fill="#000001"/><path d="M73.708 30.13 19.336 85.073l.498.493 54.372-54.945-.498-.493ZM89.12 14.996l-11.929 11.93.495.494 11.93-11.929-.496-.495Z" fill="#000001"/><path fill-rule="evenodd" clip-rule="evenodd" d="M54.083 50.35a23.43 23.43 0 0 1-1.77-8.96c0-12.96 10.55-23.51 23.51-23.51 3.11 0 6.13.59 8.96 1.77l-.27.65a22.604 22.604 0 0 0-8.7-1.71c-12.58 0-22.81 10.23-22.81 22.81 0 3.01.58 5.94 1.71 8.7l-.64.27.01-.02Z" fill="#000001"/><path fill-rule="evenodd" clip-rule="evenodd" d="M32.991 82.55c-3.11 0-6.13-.59-8.96-1.77l.27-.64a22.59 22.59 0 0 0 8.69 1.71c12.58 0 22.81-10.23 22.81-22.81 0-3.01-.58-5.94-1.71-8.7l.64-.27a23.43 23.43 0 0 1 1.77 8.96c0 12.96-10.54 23.51-23.51 23.51v.01Z" fill="#000001"/><path fill-rule="evenodd" clip-rule="evenodd" d="m84.981 80.59-.64-.27c1.14-2.75 1.71-5.68 1.71-8.7 0-12.58-10.23-22.81-22.81-22.81-3.01 0-5.94.58-8.69 1.72l-.27-.64a23.43 23.43 0 0 1 8.96-1.77c12.96 0 23.51 10.55 23.51 23.51 0 3.11-.6 6.13-1.77 8.96ZM45.58 52.3c-12.96 0-23.51-10.55-23.51-23.51 0-3.11.6-6.13 1.77-8.96l.64.27a22.6 22.6 0 0 0-1.72 8.69c0 12.58 10.23 22.81 22.81 22.81 3.01 0 5.94-.58 8.69-1.72l.27.65a23.43 23.43 0 0 1-8.96 1.77h.01Z" fill="#000001"/><path fill-rule="evenodd" clip-rule="evenodd" d="m54.73 50.35-.64-.27c1.18-2.84 2.89-5.39 5.09-7.59 4.44-4.44 10.34-6.89 16.62-6.89 6.28 0 12.18 2.45 16.62 6.89 2.2 2.2 3.91 4.75 5.09 7.59l-.65.27c-1.14-2.75-2.8-5.23-4.93-7.36a22.662 22.662 0 0 0-16.13-6.68c-6.09 0-11.82 2.37-16.13 6.68a22.81 22.81 0 0 0-4.94 7.36Z" fill="#000001"/><path fill-rule="evenodd" clip-rule="evenodd" d="M33.023 64.81c-6.02 0-12.04-2.29-16.62-6.87-2.2-2.2-3.91-4.75-5.09-7.59l.64-.27c1.14 2.75 2.8 5.23 4.94 7.36 8.89 8.89 23.36 8.89 32.26 0a22.81 22.81 0 0 0 4.94-7.36l.64.27a23.355 23.355 0 0 1-5.09 7.59c-4.58 4.58-10.6 6.87-16.62 6.87Z" fill="#000001"/><path fill-rule="evenodd" clip-rule="evenodd" d="m54.543 93.31-.27-.64c2.75-1.14 5.23-2.8 7.36-4.94a22.662 22.662 0 0 0 6.68-16.13c0-6.09-2.37-11.82-6.68-16.13a22.81 22.81 0 0 0-7.36-4.94l.27-.64c2.84 1.18 5.39 2.89 7.59 5.09 4.44 4.44 6.89 10.34 6.89 16.62 0 6.28-2.44 12.19-6.89 16.62-2.19 2.2-4.75 3.91-7.58 5.09h-.01Z" fill="#000001"/><path fill-rule="evenodd" clip-rule="evenodd" d="M54.272 50.54a23.355 23.355 0 0 1-7.59-5.09c-9.17-9.17-9.17-24.08 0-33.25 2.2-2.2 4.75-3.91 7.59-5.09l.27.64c-2.75 1.14-5.23 2.8-7.36 4.94-8.89 8.89-8.89 23.36 0 32.26a22.81 22.81 0 0 0 7.36 4.94l-.27.64v.01Z" fill="#000001"/><path fill-rule="evenodd" clip-rule="evenodd" d="M41.07 136.33s2.53.25 4.04.25c1.51 0 2.65-.16 3.84-.99 1.31-.91 1.72-2.3 1.72-3.31 0-1.33-.46-3.54-4.01-4.37-2.76-.64-3.62-1.12-4.07-2.06-.42-.88-.12-2.14.61-2.66.64-.45 1.11-.87 2.97-.74l3.19 1.6.59-1.82c-.84-.13-1.81-.25-3.45-.31-4.85-.16-5.43 2.63-5.43 3.8 0 2.02 1.38 3.53 4.33 4.11 3.35.88 3.78 2.38 3.75 3.47-.04 1.17-.73 2.4-2.08 2.65-.75.14-1.15.17-2.15.1l-3.21-1.63-.64 1.92v-.01ZM.93 122.17v2.02L4 122.67h1.99v12.54l-1.02 1.11h4.05l-1.01-1.11v-12.54h2l3.05 1.52v-2.02H.93Zm24.772 1.86 2.67 6.23h-5.34l2.67-6.23Zm-5.85 12.29h2.15l-.78-1.83 1.6-3.73h5.77l1.91 4.45-.53 1.11h3.21l-6.06-14.15h-1.19l-6.06 14.15h-.02Zm62.098-14.15 1.01 1.12v11.92l-1.01 1.11h4.04l-1.01-1.11v-11.92l1.01-1.12h-4.04Zm-13.49 0 1.01 1.12v5.45h-7.08v-5.45l1.01-1.12h-4.04l1.01 1.12v11.92l-1.01 1.11h4.05l-1.02-1.11v-5.96h7.08v5.96l-1.01 1.11h4.04l-1.01-1.11v-11.92l1.01-1.12h-4.04Zm30.058 7.58v-7.08h1.77c1.99 0 3.29 1.73 3.29 3.54 0 2.09-1.22 3.53-3.03 3.53h-2.02l-.01.01Zm8.55 6.57-1.24-1.11-2.76-5.42c.58-.22.9-.49 1.36-.83.73-.55 1.28-1.69 1.22-3-.07-1.41-.89-2.63-2.08-3.19-1.19-.57-2.53-.6-4.04-.6h-4.04l1.01 1.11v11.93l-1.01 1.11h4.04l-1.01-1.11v-4.96h1.31c.26 0 .65 0 1.1-.02l3.16 6.09h2.98Z" fill="#19191A"/></g><defs><clipPath id="a"><path fill="#fff" transform="translate(.5)" d="M0 0h200v200H0z"/></clipPath></defs></svg>