<svg width="201" height="200" fill="none" xmlns="http://www.w3.org/2000/svg"><path d="M1.172 125.72v-19.23h8.99c4.18 0 6.46 2.83 6.46 6.2s-2.31 6.2-6.46 6.2h-4.9v6.83h-4.09Zm11.27-13.03c0-1.61-1.21-2.59-2.83-2.59h-4.35v5.19h4.35c1.61 0 2.83-1.01 2.83-2.59m5.73 6.04c0-3.95 2.77-7.29 7.35-7.29s7.38 3.34 7.38 7.29-2.77 7.32-7.38 7.32c-4.61 0-7.35-3.34-7.35-7.32Zm10.93 0c0-2.16-1.3-4.04-3.57-4.04-2.27 0-3.55 1.87-3.55 4.04s1.27 4.07 3.55 4.07 3.57-1.87 3.57-4.07Zm6.198 0c0-4.27 3.08-7.29 7.38-7.29 2.85 0 4.58 1.24 5.51 2.51l-2.39 2.25c-.66-.98-1.67-1.5-2.94-1.5-2.22 0-3.78 1.61-3.78 4.04 0 2.43 1.56 4.07 3.78 4.07 1.27 0 2.28-.58 2.94-1.5l2.39 2.22c-.92 1.3-2.65 2.54-5.51 2.54-4.29 0-7.38-3.03-7.38-7.32m18.992 6.96V115h-3.89v-3.21h11.48V115h-3.9v10.72h-3.69Zm9.001-6.98c0-4.04 2.97-7.29 7.21-7.29s6.98 3.11 6.98 7.67v.81h-10.35c.23 1.76 1.64 3.23 4.01 3.23 1.18 0 2.83-.52 3.72-1.38l1.62 2.36c-1.38 1.27-3.57 1.93-5.74 1.93-4.24 0-7.44-2.85-7.44-7.32m7.21-4.38c-2.28 0-3.26 1.7-3.43 3.08h6.86c-.09-1.32-1.01-3.08-3.43-3.08Zm18.23 11.35-3.17-4.7-3.2 4.7h-4.06l4.93-7.15-4.65-6.78h4.1l2.88 4.3 2.85-4.3h4.1l-4.67 6.78 4.98 7.15h-4.09Zm-8.219-82.11V12.85h-30.59L61.844.93h30.68v30.68l-12 12Zm12 48.65-30.67-.01-11.92-11.91h30.59V49.62l12 12v30.64ZM1.203 31.61V.93h30.68l11.91 11.92h-30.59v30.76l-12-12Zm0 30.01 12-12v30.72h30.59l-11.92 11.91-30.67.01V61.62Z" fill="#000001"/></svg>