<svg width="201" height="200" fill="none" xmlns="http://www.w3.org/2000/svg"><g clip-path="url(#a)"><path d="M.5-2h10.124c.337.822.662 1.655.988 2.477 3.782 9.509 7.565 19.017 11.358 28.526 1.157-2.955 2.29-5.92 3.446-8.887C28.908 13.707 31.4 7.286 33.88.877c.37-.966.74-1.922 1.111-2.877h20.731c.426.044.842.033 1.268.067 2.402.155 4.815.71 6.96 1.81 1.155.567 2.233 1.3 3.22 2.122 1.112.9 2.11 1.966 2.862 3.177a11.17 11.17 0 0 1 1.583 4.332c.236 1.71.169 3.466-.28 5.143a11.258 11.258 0 0 1-1.706 3.588c-.82 1.155-1.83 2.155-2.952 3.022a15.904 15.904 0 0 1-3.805 2.177c-1.437.589-2.964.966-4.501 1.166h5.724L73.422 41H62.928c-3.042-5.41-6.072-10.808-9.114-16.218h-8.62V41h-9.496V2.832c-.044.1-.078.211-.123.322-4.793 12.62-9.597 25.238-14.39 37.846h-2.873L3.06 2.643V41H.5V-2ZM45.216.133V22.66h7.307a8.522 8.522 0 0 0 1.684-.222 7.269 7.269 0 0 0 3.569-2.077c.954-.978 1.639-2.188 2.11-3.466.606-1.633.853-3.399.887-5.143.033-1.866-.18-3.766-.775-5.543-.449-1.344-1.145-2.633-2.132-3.677a7.63 7.63 0 0 0-3.457-2.11c-.786-.211-1.605-.29-2.402-.29h-6.79ZM90.135 9.23c1.257-.388 2.581-.566 3.906-.577 1.448-.022 2.907.133 4.265.61.931.323 1.796.812 2.514 1.478.741.689 1.313 1.566 1.549 2.544.09.378.146.755.146 1.144h-.887c0-.61-.101-1.222-.37-1.777a3.622 3.622 0 0 0-.842-1.155 6.508 6.508 0 0 0-3.322-1.633 10.25 10.25 0 0 0-3.772.077c-1.28.29-2.492.911-3.423 1.822-.965.933-1.616 2.122-2.032 3.388-.516 1.578-.696 3.255-.684 4.91 0 1.4.157 2.8.56 4.143a9.617 9.617 0 0 0 1.797 3.455c.617.778 1.425 1.433 2.368 1.777.808.311 1.684.4 2.537.345 1.1-.067 2.188-.39 3.053-1.078.617-.489 1.1-1.166 1.324-1.91.067-.19.034-.39.045-.59v-1.732c0-1.089.022-2.177 0-3.277h4.736v9.153h-.74a387.19 387.19 0 0 1-2.458-2.244c-.64.833-1.55 1.4-2.515 1.778-1.144.444-2.368.644-3.591.677-1.358.034-2.728-.11-4.03-.5-2.312-.677-4.355-2.132-5.814-4.032a9.845 9.845 0 0 1-1.784-3.81 11.616 11.616 0 0 1-.292-2.577c-.023-1.61.303-3.221.999-4.677.662-1.355 1.638-2.555 2.795-3.532a11.221 11.221 0 0 1 3.995-2.188l-.033-.012Zm49.969-.544c1.818-.122 3.67.067 5.387.689 1.302.466 2.514 1.2 3.536 2.121 1.077.967 1.986 2.122 2.593 3.41.695 1.467.987 3.078.987 4.677 0 1.733-.359 3.455-1.156 4.988a11.01 11.01 0 0 1-2.851 3.444 10.47 10.47 0 0 1-3.838 1.999 12.19 12.19 0 0 1-3.031.466c-1.807.067-3.636-.177-5.309-.844a10.859 10.859 0 0 1-3.659-2.455 10.233 10.233 0 0 1-2.458-3.788c-.606-1.677-.752-3.51-.561-5.276a10.221 10.221 0 0 1 1.751-4.665 11.453 11.453 0 0 1 3.109-3.022c1.628-1.066 3.558-1.633 5.5-1.755v.011Zm.404.867a4.935 4.935 0 0 0-2.211.777 5.978 5.978 0 0 0-1.673 1.633c-.886 1.244-1.391 2.722-1.683 4.21-.326 1.733-.359 3.521-.202 5.277.168 1.821.606 3.665 1.571 5.243.64 1.055 1.549 2 2.705 2.51.898.4 1.908.5 2.885.378a4.988 4.988 0 0 0 2.143-.811 5.708 5.708 0 0 0 1.46-1.422 9.67 9.67 0 0 0 1.212-2.21c.651-1.667.875-3.466.909-5.244 0-1.055-.045-2.121-.191-3.165-.236-1.589-.73-3.144-1.627-4.5-.618-.977-1.493-1.843-2.571-2.299-.842-.366-1.796-.477-2.716-.377h-.011Zm-32.325-.656h9.922c1.56 0 3.143.322 4.489 1.089a8.44 8.44 0 0 1 1.706 1.244 6.2 6.2 0 0 1 1.201 1.544c.36.667.573 1.41.64 2.166.09.966-.022 1.955-.381 2.855-.438 1.1-1.235 2.022-2.167 2.732a8.24 8.24 0 0 1-2.2 1.19c-.606.199-1.234.366-1.863.421.449.045.898 0 1.347.022h1.482c1.549 2.733 3.109 5.455 4.658 8.176h-5.242c-1.515-2.688-3.03-5.387-4.546-8.076h-4.298v8.076h-4.737V8.897h-.011Zm4.736 1.067v11.23h3.424a4.62 4.62 0 0 0 1.223-.155c.887-.256 1.65-.878 2.144-1.645.449-.7.718-1.5.853-2.321a9.163 9.163 0 0 0 .067-2.6c-.101-.81-.314-1.61-.696-2.321-.325-.622-.785-1.178-1.369-1.566a3.717 3.717 0 0 0-2.144-.622h-3.502Zm43.628-1.078h4.736v13.041c-.022.889.057 1.789.292 2.644.337 1.277 1.067 2.477 2.144 3.277 1.19.877 2.683 1.233 4.153 1.222 1.481.022 3.008-.411 4.153-1.355a5.875 5.875 0 0 0 1.021-1.09V8.92h4.737v21.44h-.752c-1.145-1.034-2.268-2.078-3.424-3.111a7.097 7.097 0 0 1-3.401 2.61c-1.627.611-3.4.723-5.118.578-1.571-.133-3.12-.567-4.478-1.377-1.223-.722-2.278-1.733-3.008-2.966a8.108 8.108 0 0 1-.92-2.522c-.146-.777-.18-1.555-.158-2.344V8.908l.023-.022Zm25.961 0h8.856c.662 0 1.313-.022 1.964.045 1.437.11 2.862.544 4.063 1.333 1.021.677 1.953 1.532 2.503 2.632.37.711.561 1.51.606 2.322v.71c-.056.856-.269 1.711-.685 2.478-.639 1.177-1.683 2.11-2.851 2.766-1.369.755-2.951 1.088-4.512 1.088h-5.196v8.076h-4.737V8.897l-.011-.01Zm4.736 1.078v11.219h2.997c.359 0 .719.022 1.089-.033a3.684 3.684 0 0 0 2.076-1c.438-.411.764-.922 1.011-1.466.359-.811.527-1.7.583-2.589.034-.755 0-1.51-.146-2.255-.157-.755-.426-1.5-.864-2.155a3.973 3.973 0 0 0-1.313-1.233 3.964 3.964 0 0 0-1.875-.488h-3.558Z" fill="#000001"/></g><defs><clipPath id="a"><path fill="#fff" transform="translate(.5)" d="M0 0h200v200H0z"/></clipPath></defs></svg>