<svg width="24" height="24" viewBox="0 0 24 24" fill="none" xmlns="http://www.w3.org/2000/svg">
<g clip-path="url(#clip0_302_1213)">
<path d="M3.16669 6.16699C3.16669 5.0798 3.16669 4.5362 3.3443 4.1074C3.58112 3.53567 4.03536 3.08143 4.60709 2.84461C5.03589 2.66699 5.57949 2.66699 6.66669 2.66699C7.75388 2.66699 8.29748 2.66699 8.72628 2.84461C9.29801 3.08143 9.75225 3.53567 9.98907 4.1074C10.1667 4.5362 10.1667 5.0798 10.1667 6.16699C10.1667 7.25419 10.1667 7.79779 9.98907 8.22659C9.75225 8.79832 9.29801 9.25256 8.72628 9.48938C8.29748 9.66699 7.75388 9.66699 6.66669 9.66699C5.57949 9.66699 5.03589 9.66699 4.60709 9.48938C4.03536 9.25256 3.58112 8.79832 3.3443 8.22659C3.16669 7.79779 3.16669 7.25419 3.16669 6.16699Z" fill="#000001"/>
<path d="M14.8334 6.16699C14.8334 5.0798 14.8334 4.5362 15.011 4.1074C15.2478 3.53567 15.702 3.08143 16.2738 2.84461C16.7026 2.66699 17.2462 2.66699 18.3334 2.66699C19.4205 2.66699 19.9641 2.66699 20.3929 2.84461C20.9647 3.08143 21.4189 3.53567 21.6557 4.1074C21.8334 4.5362 21.8334 5.0798 21.8334 6.16699C21.8334 7.25419 21.8334 7.79779 21.6557 8.22659C21.4189 8.79832 20.9647 9.25256 20.3929 9.48938C19.9641 9.66699 19.4205 9.66699 18.3334 9.66699C17.2462 9.66699 16.7026 9.66699 16.2738 9.48938C15.702 9.25256 15.2478 8.79832 15.011 8.22659C14.8334 7.79779 14.8334 7.25419 14.8334 6.16699Z" fill="#000001"/>
<path d="M3.16669 17.8337C3.16669 16.7465 3.16669 16.2029 3.3443 15.7741C3.58112 15.2023 4.03536 14.7481 4.60709 14.5113C5.03589 14.3337 5.57949 14.3337 6.66669 14.3337C7.75388 14.3337 8.29748 14.3337 8.72628 14.5113C9.29801 14.7481 9.75225 15.2023 9.98907 15.7741C10.1667 16.2029 10.1667 16.7465 10.1667 17.8337C10.1667 18.9209 10.1667 19.4645 9.98907 19.8933C9.75225 20.465 9.29801 20.9192 8.72628 21.156C8.29748 21.3337 7.75388 21.3337 6.66669 21.3337C5.57949 21.3337 5.03589 21.3337 4.60709 21.156C4.03536 20.9192 3.58112 20.465 3.3443 19.8933C3.16669 19.4645 3.16669 18.9209 3.16669 17.8337Z" fill="#000001"/>
<path d="M14.8334 17.8337C14.8334 16.7465 14.8334 16.2029 15.011 15.7741C15.2478 15.2023 15.702 14.7481 16.2738 14.5113C16.7026 14.3337 17.2462 14.3337 18.3334 14.3337C19.4205 14.3337 19.9641 14.3337 20.3929 14.5113C20.9647 14.7481 21.4189 15.2023 21.6557 15.7741C21.8334 16.2029 21.8334 16.7465 21.8334 17.8337C21.8334 18.9209 21.8334 19.4645 21.6557 19.8933C21.4189 20.465 20.9647 20.9192 20.3929 21.156C19.9641 21.3337 19.4205 21.3337 18.3334 21.3337C17.2462 21.3337 16.7026 21.3337 16.2738 21.156C15.702 20.9192 15.2478 20.465 15.011 19.8933C14.8334 19.4645 14.8334 18.9209 14.8334 17.8337Z" fill="#000001"/>
</g>
<defs>
<clipPath id="clip0_302_1213">
<rect width="24" height="24" fill="white"/>
</clipPath>
</defs>
</svg>
