<svg width="24" height="24" viewBox="0 0 24 24" fill="none" xmlns="http://www.w3.org/2000/svg">
<g clip-path="url(#clip0_281_81647)">
<path fill-rule="evenodd" clip-rule="evenodd" d="M12 0.500028C6.06294 0.500028 1.25 5.31297 1.25 11.25C1.25 17.1871 6.06294 22 12 22C17.9371 22 22.75 17.1871 22.75 11.25C22.75 5.31297 17.9371 0.500028 12 0.500028ZM12.75 7.25003C12.75 6.83581 12.4142 6.50003 12 6.50003C11.5858 6.50003 11.25 6.83581 11.25 7.25003V11.4559C11.25 11.7747 11.1282 12.0814 10.9095 12.3134L9.4543 13.8569C9.17015 14.1582 9.18412 14.6329 9.4855 14.9171C9.78689 15.2012 10.2616 15.1872 10.5457 14.8858L12.0009 13.3424C12.482 12.8321 12.75 12.1572 12.75 11.4559V7.25003Z" fill="#A1A2A9"/>
<path d="M5.96852 0.835679C6.29197 0.576922 6.34441 0.104953 6.08565 -0.218494C5.82689 -0.54194 5.35493 -0.594381 5.03148 -0.335624L2.53148 1.66438C2.20803 1.92313 2.15559 2.3951 2.41435 2.71855C2.67311 3.042 3.14507 3.09444 3.46852 2.83568L5.96852 0.835679Z" fill="#A1A2A9"/>
<path d="M18.9685 -0.335624C18.6451 -0.594381 18.1731 -0.54194 17.9143 -0.218494C17.6556 0.104953 17.708 0.576922 18.0315 0.835679L20.5315 2.83568C20.8549 3.09444 21.3269 3.042 21.5857 2.71855C21.8444 2.3951 21.792 1.92313 21.4685 1.66438L18.9685 -0.335624Z" fill="#A1A2A9"/>
</g>
<defs>
<clipPath id="clip0_281_81647">
<rect width="24" height="24" fill="white"/>
</clipPath>
</defs>
</svg>
