<svg width="24" height="25" viewBox="0 0 24 25" fill="none" xmlns="http://www.w3.org/2000/svg">
<g clip-path="url(#clip0_446_8619)">
<path d="M3.16699 6.66699C3.16699 5.5798 3.16699 5.0362 3.34461 4.6074C3.58143 4.03567 4.03567 3.58143 4.6074 3.34461C5.0362 3.16699 5.5798 3.16699 6.66699 3.16699C7.75419 3.16699 8.29779 3.16699 8.72659 3.34461C9.29832 3.58143 9.75256 4.03567 9.98938 4.6074C10.167 5.0362 10.167 5.5798 10.167 6.66699C10.167 7.75419 10.167 8.29779 9.98938 8.72659C9.75256 9.29832 9.29832 9.75256 8.72659 9.98938C8.29779 10.167 7.75419 10.167 6.66699 10.167C5.5798 10.167 5.0362 10.167 4.6074 9.98938C4.03567 9.75256 3.58143 9.29832 3.34461 8.72659C3.16699 8.29779 3.16699 7.75419 3.16699 6.66699Z" fill="#000001"/>
<path d="M14.8337 6.66699C14.8337 5.5798 14.8337 5.0362 15.0113 4.6074C15.2481 4.03567 15.7023 3.58143 16.2741 3.34461C16.7029 3.16699 17.2465 3.16699 18.3337 3.16699C19.4209 3.16699 19.9645 3.16699 20.3933 3.34461C20.965 3.58143 21.4192 4.03567 21.656 4.6074C21.8337 5.0362 21.8337 5.5798 21.8337 6.66699C21.8337 7.75419 21.8337 8.29779 21.656 8.72659C21.4192 9.29832 20.965 9.75256 20.3933 9.98938C19.9645 10.167 19.4209 10.167 18.3337 10.167C17.2465 10.167 16.7029 10.167 16.2741 9.98938C15.7023 9.75256 15.2481 9.29832 15.0113 8.72659C14.8337 8.29779 14.8337 7.75419 14.8337 6.66699Z" fill="#000001"/>
<path d="M3.16699 18.3337C3.16699 17.2465 3.16699 16.7029 3.34461 16.2741C3.58143 15.7023 4.03567 15.2481 4.6074 15.0113C5.0362 14.8337 5.5798 14.8337 6.66699 14.8337C7.75419 14.8337 8.29779 14.8337 8.72659 15.0113C9.29832 15.2481 9.75256 15.7023 9.98938 16.2741C10.167 16.7029 10.167 17.2465 10.167 18.3337C10.167 19.4209 10.167 19.9645 9.98938 20.3933C9.75256 20.965 9.29832 21.4192 8.72659 21.656C8.29779 21.8337 7.75419 21.8337 6.66699 21.8337C5.5798 21.8337 5.0362 21.8337 4.6074 21.656C4.03567 21.4192 3.58143 20.965 3.34461 20.3933C3.16699 19.9645 3.16699 19.4209 3.16699 18.3337Z" fill="#000001"/>
<path d="M14.8337 18.3337C14.8337 17.2465 14.8337 16.7029 15.0113 16.2741C15.2481 15.7023 15.7023 15.2481 16.2741 15.0113C16.7029 14.8337 17.2465 14.8337 18.3337 14.8337C19.4209 14.8337 19.9645 14.8337 20.3933 15.0113C20.965 15.2481 21.4192 15.7023 21.656 16.2741C21.8337 16.7029 21.8337 17.2465 21.8337 18.3337C21.8337 19.4209 21.8337 19.9645 21.656 20.3933C21.4192 20.965 20.965 21.4192 20.3933 21.656C19.9645 21.8337 19.4209 21.8337 18.3337 21.8337C17.2465 21.8337 16.7029 21.8337 16.2741 21.656C15.7023 21.4192 15.2481 20.965 15.0113 20.3933C14.8337 19.9645 14.8337 19.4209 14.8337 18.3337Z" fill="#000001"/>
</g>
<defs>
<clipPath id="clip0_446_8619">
<rect width="24" height="24" fill="white" transform="translate(0 0.5)"/>
</clipPath>
</defs>
</svg>
