<svg width="16" height="16" viewBox="0 0 16 16" fill="none" xmlns="http://www.w3.org/2000/svg">
<path fill-rule="evenodd" clip-rule="evenodd" d="M14.9797 2.39045C15.1953 2.21795 15.2303 1.9033 15.0578 1.68767C14.8853 1.47204 14.5706 1.43708 14.355 1.60958L12.1381 3.38309C12.017 3.27434 11.893 3.16766 11.7662 3.06383C10.7185 2.20601 9.42798 1.50002 8.00067 1.50002C6.57337 1.50002 5.28284 2.20601 4.23516 3.06383C3.18176 3.92633 2.32042 4.98579 1.74161 5.79203L1.69388 5.85841C1.34544 6.34258 1.05861 6.74112 1.05861 7.33335C1.05861 7.92558 1.34544 8.32413 1.69388 8.80829L1.74161 8.87468C2.10472 9.38046 2.57901 9.9859 3.14216 10.5798L1.02166 12.2763C0.806024 12.4488 0.771064 12.7634 0.943568 12.979C1.11607 13.1947 1.43072 13.2296 1.64635 13.0571L14.9797 2.39045ZM5.77517 8.47344L6.58367 7.82664C6.52989 7.67215 6.50067 7.50616 6.50067 7.33335C6.50067 6.50492 7.17224 5.83335 8.00067 5.83335C8.29146 5.83335 8.56293 5.9161 8.79281 6.05933L9.6011 5.41269C9.16749 5.05098 8.60949 4.83335 8.00067 4.83335C6.61996 4.83335 5.50067 5.95264 5.50067 7.33335C5.50067 7.74403 5.5997 8.13159 5.77517 8.47344Z" fill="#000001"/>
<path d="M13.7974 5.17656L10.4455 7.85811C10.2044 8.98687 9.20139 9.83335 8.00067 9.83335L7.97659 9.83324L5.03269 12.1884C5.91223 12.7597 6.91703 13.1667 8.00067 13.1667C9.42798 13.1667 10.7185 12.4607 11.7662 11.6029C12.8196 10.7404 13.6809 9.68092 14.2597 8.87468L14.3075 8.8083C14.6559 8.32413 14.9427 7.92558 14.9427 7.33335C14.9427 6.74112 14.6559 6.34258 14.3075 5.85841L14.2597 5.79203C14.1214 5.59929 13.9669 5.39209 13.7974 5.17656Z" fill="#000001"/>
</svg>
