<svg width="16" height="16" viewBox="0 0 16 16" fill="none" xmlns="http://www.w3.org/2000/svg">
<path fill-rule="evenodd" clip-rule="evenodd" d="M4.16667 3.99984C4.16667 1.88275 5.88291 0.166504 8 0.166504C10.1171 0.166504 11.8333 1.88275 11.8333 3.99984V4.74231C11.8333 4.78685 11.8275 4.83003 11.8166 4.87113C12.774 5.22292 13.5202 5.99529 13.8369 6.96978C14 7.47189 14 8.09232 14 9.33317C14 10.574 14 11.1945 13.8369 11.6966C13.5071 12.7114 12.7115 13.507 11.6967 13.8367C11.1946 13.9998 10.5742 13.9998 9.33333 13.9998H6.66665C5.42581 13.9998 4.80538 13.9998 4.30328 13.8367C3.28848 13.507 2.49287 12.7114 2.16314 11.6966C2 11.1945 2 10.574 2 9.33317C2 8.09232 2 7.47189 2.16314 6.96978C2.47978 5.99529 3.22602 5.22292 4.18342 4.87113C4.17249 4.83003 4.16667 4.78685 4.16667 4.74231V3.99984ZM5.16667 4.68926C5.54649 4.6665 6.02314 4.6665 6.66667 4.6665H9.33333C9.97686 4.6665 10.4535 4.6665 10.8333 4.68926V3.99984C10.8333 2.43503 9.56481 1.1665 8 1.1665C6.43519 1.1665 5.16667 2.43503 5.16667 3.99984V4.68926ZM8 7.49984C8.27614 7.49984 8.5 7.72369 8.5 7.99984V10.6665C8.5 10.9426 8.27614 11.1665 8 11.1665C7.72386 11.1665 7.5 10.9426 7.5 10.6665V7.99984C7.5 7.72369 7.72386 7.49984 8 7.49984Z" fill="#A1A2A9"/>
</svg>
