<svg width="54" height="54" viewBox="0 0 54 54" fill="none" xmlns="http://www.w3.org/2000/svg">
<g clip-path="url(#clip0_246_10061)">
<path d="M27 54C27 54 47.25 34.8097 47.25 20.25C47.25 14.8794 45.1165 9.7287 41.3189 5.93109C37.5213 2.13348 32.3706 0 27 0C21.6294 0 16.4787 2.13348 12.6811 5.93109C8.88348 9.7287 6.75 14.8794 6.75 20.25C6.75 34.8097 27 54 27 54ZM27 30.375C24.3147 30.375 21.7394 29.3083 19.8405 27.4095C17.9417 25.5107 16.875 22.9353 16.875 20.25C16.875 17.5647 17.9417 14.9894 19.8405 13.0905C21.7394 11.1917 24.3147 10.125 27 10.125C29.6853 10.125 32.2607 11.1917 34.1595 13.0905C36.0583 14.9894 37.125 17.5647 37.125 20.25C37.125 22.9353 36.0583 25.5107 34.1595 27.4095C32.2607 29.3083 29.6853 30.375 27 30.375Z" fill="#000001"/>
</g>
<defs>
<clipPath id="clip0_246_10061">
<rect width="54" height="54" fill="white"/>
</clipPath>
</defs>
</svg>
