<svg width="24" height="24" viewBox="0 0 24 24" fill="none" xmlns="http://www.w3.org/2000/svg">
<path fill-rule="evenodd" clip-rule="evenodd" d="M18.0049 15.4145L18.2672 13.5295C18.3479 12.9495 18.4217 12.4193 18.4873 11.9329C18.6221 10.9334 18.6895 10.4337 18.3906 10.0918C18.0918 9.75 17.5782 9.75 16.551 9.75H6.94905C5.92182 9.75 5.40821 9.75 5.10938 10.0918C4.81054 10.4337 4.87793 10.9334 5.01272 11.9329C5.07833 12.4195 5.15207 12.9493 5.23281 13.5295L5.49515 15.4145C5.78026 17.4632 5.92282 18.4876 6.22509 19.3103C6.79034 20.8488 7.76744 21.9947 8.93366 22.4868C9.5573 22.75 10.2882 22.75 11.75 22.75C13.2118 22.75 13.9427 22.75 14.5664 22.4868C15.7326 21.9947 16.7097 20.8488 17.2749 19.3103C17.5772 18.4876 17.7198 17.4632 18.0049 15.4145ZM10.5 11.75C10.5 11.3358 10.1642 11 9.75 11C9.33579 11 9 11.3358 9 11.75V19.75C9 20.1642 9.33579 20.5 9.75 20.5C10.1642 20.5 10.5 20.1642 10.5 19.75V11.75ZM14.5 11.75C14.5 11.3358 14.1642 11 13.75 11C13.3358 11 13 11.3358 13 11.75V19.75C13 20.1642 13.3358 20.5 13.75 20.5C14.1642 20.5 14.5 20.1642 14.5 19.75V11.75Z" fill="#000001"/>
<path d="M11.75 2C9.12665 2 7 4.12665 7 6.75V7H3.75C3.33579 7 3 7.33579 3 7.75C3 8.16421 3.33579 8.5 3.75 8.5H19.75C20.1642 8.5 20.5 8.16421 20.5 7.75C20.5 7.33579 20.1642 7 19.75 7H16.5V6.75C16.5 4.12665 14.3734 2 11.75 2Z" fill="#000001"/>
</svg>
