<svg width="16" height="16" viewBox="0 0 16 16" fill="none" xmlns="http://www.w3.org/2000/svg">
<path d="M6.4987 7.33333C6.4987 6.50491 7.17027 5.83333 7.9987 5.83333C8.82712 5.83333 9.4987 6.50491 9.4987 7.33333C9.4987 8.16176 8.82712 8.83333 7.9987 8.83333C7.17027 8.83333 6.4987 8.16176 6.4987 7.33333Z" fill="#000001"/>
<path fill-rule="evenodd" clip-rule="evenodd" d="M4.23319 3.06381C5.28086 2.20599 6.5714 1.5 7.9987 1.5C9.42601 1.5 10.7165 2.20599 11.7642 3.06381C12.8176 3.92631 13.679 4.98577 14.2578 5.79201L14.3055 5.8584C14.6539 6.34256 14.9408 6.7411 14.9408 7.33333C14.9408 7.92556 14.6539 8.32411 14.3055 8.80828L14.2578 8.87466C13.679 9.6809 12.8176 10.7404 11.7642 11.6029C10.7165 12.4607 9.42601 13.1667 7.9987 13.1667C6.5714 13.1667 5.28086 12.4607 4.23319 11.6029C3.17979 10.7404 2.31844 9.6809 1.73964 8.87466L1.69191 8.80827C1.34347 8.32411 1.05664 7.92556 1.05664 7.33333C1.05664 6.7411 1.34347 6.34256 1.69191 5.85839L1.73964 5.79201C2.31844 4.98577 3.17979 3.92631 4.23319 3.06381ZM7.9987 4.83333C6.61799 4.83333 5.4987 5.95262 5.4987 7.33333C5.4987 8.71405 6.61799 9.83333 7.9987 9.83333C9.37941 9.83333 10.4987 8.71405 10.4987 7.33333C10.4987 5.95262 9.37941 4.83333 7.9987 4.83333Z" fill="#000001"/>
</svg>
