<svg width="25" height="24" viewBox="0 0 25 24" fill="none" xmlns="http://www.w3.org/2000/svg">
<path d="M13.2499 7.99991C13.2499 7.5857 12.9141 7.24991 12.4999 7.24991C12.0857 7.24991 11.7499 7.5857 11.7499 7.99991H13.2499ZM11.7499 15.9999C11.7499 16.4141 12.0857 16.7499 12.4999 16.7499C12.9141 16.7499 13.2499 16.4141 13.2499 15.9999H11.7499ZM16.2499 8.99991C16.2499 8.5857 15.9141 8.24991 15.4999 8.24991C15.0857 8.24991 14.7499 8.5857 14.7499 8.99991H16.2499ZM14.7499 14.9999C14.7499 15.4141 15.0857 15.7499 15.4999 15.7499C15.9141 15.7499 16.2499 15.4141 16.2499 14.9999H14.7499ZM19.2499 10.9999C19.2499 10.5857 18.9141 10.2499 18.4999 10.2499C18.0857 10.2499 17.7499 10.5857 17.7499 10.9999H19.2499ZM17.7499 12.9999C17.7499 13.4141 18.0857 13.7499 18.4999 13.7499C18.9141 13.7499 19.2499 13.4141 19.2499 12.9999H17.7499ZM10.2499 8.99991C10.2499 8.5857 9.91415 8.24991 9.49994 8.24991C9.08572 8.24991 8.74994 8.5857 8.74994 8.99991H10.2499ZM8.74994 14.9999C8.74994 15.4141 9.08572 15.7499 9.49994 15.7499C9.91415 15.7499 10.2499 15.4141 10.2499 14.9999H8.74994ZM7.24994 10.9999C7.24994 10.5857 6.91415 10.2499 6.49994 10.2499C6.08572 10.2499 5.74994 10.5857 5.74994 10.9999H7.24994ZM5.74994 12.9999C5.74994 13.4141 6.08572 13.7499 6.49994 13.7499C6.91415 13.7499 7.24994 13.4141 7.24994 12.9999H5.74994ZM17.3954 3.02486L17.7377 2.35755V2.35755L17.3954 3.02486ZM17.8248 3.2728L17.4181 3.90293L17.8248 3.2728ZM7.17504 3.2728L6.7683 2.64268L7.17504 3.2728ZM7.60448 3.02486L7.26215 2.35755V2.35755L7.60448 3.02486ZM2.27959 12.2478L3.02867 12.2107L2.27959 12.2478ZM2.27959 11.752L1.53051 11.7148L2.27959 11.752ZM7.60448 20.975L7.26215 21.6423H7.26215L7.60448 20.975ZM7.17504 20.727L7.58179 20.0969L7.17504 20.727ZM17.8248 20.727L18.2316 21.3571L17.8248 20.727ZM17.3954 20.975L17.7377 21.6423L17.3954 20.975ZM22.7203 12.2479L23.4694 12.285L22.7203 12.2479ZM22.7203 11.752L21.9712 11.7892L22.7203 11.752ZM11.7499 7.99991V15.9999H13.2499V7.99991H11.7499ZM14.7499 8.99991V14.9999H16.2499V8.99991H14.7499ZM17.7499 10.9999V12.9999H19.2499V10.9999H17.7499ZM8.74994 8.99991L8.74994 14.9999H10.2499L10.2499 8.99991H8.74994ZM5.74994 10.9999L5.74994 12.9999H7.24994L7.24994 10.9999H5.74994ZM12.4999 3.22363C13.7867 3.22363 14.7031 3.22432 15.4332 3.28956C16.149 3.35352 16.6318 3.4761 17.0531 3.69218L17.7377 2.35755C17.0844 2.0224 16.3932 1.86936 15.5667 1.79551C14.7545 1.72294 13.7604 1.72363 12.4999 1.72363V3.22363ZM21.3995 6.86177C20.7692 5.77015 20.2727 4.90888 19.8038 4.24182C19.3266 3.56301 18.8485 3.04089 18.2316 2.64268L17.4181 3.90293C17.8158 4.15967 18.1634 4.51653 18.5767 5.10446C18.9983 5.70414 19.457 6.49738 20.1004 7.61177L21.3995 6.86177ZM17.0531 3.69218C17.1781 3.75635 17.3 3.82668 17.4181 3.90293L18.2316 2.64268C18.0718 2.53953 17.907 2.44437 17.7377 2.35755L17.0531 3.69218ZM4.89945 7.61177C5.54285 6.49738 6.00162 5.70414 6.42318 5.10446C6.83648 4.51653 7.18405 4.15967 7.58179 3.90293L6.7683 2.64268C6.15139 3.04089 5.67323 3.56301 5.19604 4.24182C4.72712 4.90888 4.23066 5.77015 3.60042 6.86177L4.89945 7.61177ZM12.4999 1.72363C11.2394 1.72363 10.2453 1.72294 9.43318 1.79551C8.60672 1.86936 7.91547 2.0224 7.26215 2.35755L7.94681 3.69218C8.36803 3.4761 8.85086 3.35352 9.56668 3.28956C10.2968 3.22432 11.2131 3.22363 12.4999 3.22363V1.72363ZM7.58179 3.90293C7.6999 3.82668 7.82173 3.75635 7.94681 3.69218L7.26215 2.35755C7.09292 2.44436 6.9281 2.53952 6.7683 2.64268L7.58179 3.90293ZM4.89945 16.3881C4.25606 15.2737 3.79848 14.4797 3.48992 13.8148C3.1874 13.1629 3.05214 12.6835 3.02867 12.2107L1.53051 12.285C1.56692 13.0184 1.78001 13.6936 2.12929 14.4462C2.47252 15.1859 2.97017 16.0464 3.60042 17.1381L4.89945 16.3881ZM3.60042 6.86177C2.97017 7.95339 2.47252 8.81397 2.12929 9.5536C1.78001 10.3063 1.56692 10.9814 1.53051 11.7148L3.02867 11.7892C3.05214 11.3163 3.1874 10.8369 3.48992 10.185C3.79848 9.52009 4.25606 8.72616 4.89945 7.61177L3.60042 6.86177ZM3.02867 12.2107C3.02169 12.0702 3.02169 11.9296 3.02867 11.7892L1.53051 11.7148C1.52108 11.9048 1.52108 12.0951 1.53051 12.285L3.02867 12.2107ZM12.4999 20.7762C11.2131 20.7762 10.2968 20.7755 9.56668 20.7103C8.85086 20.6463 8.36803 20.5237 7.94681 20.3076L7.26215 21.6423C7.91546 21.9774 8.60672 22.1305 9.43318 22.2043C10.2453 22.2769 11.2394 22.2762 12.4999 22.2762V20.7762ZM3.60042 17.1381C4.23066 18.2297 4.72712 19.0909 5.19604 19.758C5.67323 20.4368 6.15139 20.9589 6.76829 21.3571L7.58179 20.0969C7.18405 19.8402 6.83648 19.4833 6.42318 18.8954C6.00162 18.2957 5.54285 17.5024 4.89945 16.3881L3.60042 17.1381ZM7.94681 20.3076C7.82173 20.2435 7.6999 20.1731 7.58179 20.0969L6.76829 21.3571C6.92809 21.4603 7.09292 21.5555 7.26215 21.6423L7.94681 20.3076ZM20.1004 16.3881C19.457 17.5024 18.9983 18.2957 18.5767 18.8954C18.1634 19.4833 17.8158 19.8402 17.4181 20.0969L18.2316 21.3571C18.8485 20.9589 19.3266 20.4368 19.8038 19.758C20.2727 19.0909 20.7692 18.2297 21.3995 17.1381L20.1004 16.3881ZM12.4999 22.2762C13.7604 22.2762 14.7545 22.2769 15.5667 22.2043C16.3931 22.1305 17.0844 21.9774 17.7377 21.6423L17.0531 20.3076C16.6318 20.5237 16.149 20.6463 15.4332 20.7103C14.7031 20.7755 13.7867 20.7762 12.4999 20.7762V22.2762ZM17.4181 20.0969C17.3 20.1731 17.1781 20.2435 17.0531 20.3076L17.7377 21.6423C17.9069 21.5555 18.0718 21.4603 18.2316 21.3571L17.4181 20.0969ZM21.3995 17.1381C22.0297 16.0464 22.5274 15.1859 22.8706 14.4462C23.2199 13.6936 23.4329 13.0184 23.4694 12.285L21.9712 12.2107C21.9477 12.6835 21.8125 13.1629 21.51 13.8148C21.2014 14.4797 20.7438 15.2737 20.1004 16.3881L21.3995 17.1381ZM20.1004 7.61177C20.7438 8.72616 21.2014 9.52009 21.51 10.185C21.8125 10.8369 21.9477 11.3163 21.9712 11.7892L23.4694 11.7148C23.4329 10.9814 23.2199 10.3063 22.8706 9.5536C22.5274 8.81397 22.0297 7.95339 21.3995 6.86177L20.1004 7.61177ZM23.4694 12.285C23.4788 12.0951 23.4788 11.9048 23.4694 11.7148L21.9712 11.7892C21.9782 11.9296 21.9782 12.0702 21.9712 12.2107L23.4694 12.285Z" fill="#000001"/>
</svg>
