<svg width="25" height="24" viewBox="0 0 25 24" fill="none" xmlns="http://www.w3.org/2000/svg">
<path d="M17.0761 9.48034C17.3413 9.16214 17.2983 8.68921 16.9801 8.42404C16.6619 8.15887 16.189 8.20186 15.9238 8.52007L12.4602 12.6763C12.0895 13.1213 11.8618 13.3917 11.6742 13.5611C11.5872 13.6397 11.5356 13.671 11.5108 13.6829C11.5058 13.6854 11.5022 13.6868 11.5 13.6877C11.5 13.6877 11.5 13.6877 11.5 13.6877C11.4977 13.6868 11.4941 13.6854 11.4891 13.6829C11.4644 13.671 11.4128 13.6397 11.3258 13.5611C11.1382 13.3917 10.9105 13.1213 10.5397 12.6763L9.07614 10.9201C8.81096 10.6019 8.33804 10.5589 8.01983 10.824C7.70162 11.0892 7.65863 11.5621 7.9238 11.8803L9.4193 13.675C9.74777 14.0692 10.0439 14.4246 10.3205 14.6744C10.6214 14.9461 11.0005 15.1882 11.5 15.1882C11.9995 15.1882 12.3785 14.9461 12.6795 14.6744C12.9561 14.4246 13.2522 14.0692 13.5806 13.675L17.0761 9.48034Z" fill="#2D264B"/>
<path fill-rule="evenodd" clip-rule="evenodd" d="M16.0643 2.75683C15.0409 -0.829098 9.95899 -0.829098 8.93562 2.75683C8.6088 3.90199 7.43229 4.58125 6.27714 4.2917C2.65995 3.385 0.118975 7.78611 2.71279 10.4653C3.54112 11.3209 3.54112 12.6795 2.71279 13.5351C0.118974 16.2143 2.65995 20.6154 6.27714 19.7087C7.43229 19.4192 8.6088 20.0984 8.93562 21.2436C9.95899 24.8295 15.0409 24.8295 16.0643 21.2436C16.3911 20.0984 17.5676 19.4192 18.7228 19.7087C22.34 20.6154 24.881 16.2143 22.2872 13.5351C21.4588 12.6795 21.4588 11.3209 22.2872 10.4653C24.881 7.78611 22.34 3.385 18.7228 4.2917C17.5676 4.58125 16.3911 3.90199 16.0643 2.75683ZM10.378 3.16847C10.9873 1.03369 14.0127 1.03369 14.6219 3.16847C15.1709 5.09207 17.1471 6.23306 19.0875 5.74668C21.2409 5.20691 22.7536 7.82699 21.2094 9.422C19.8181 10.8592 19.8181 13.1412 21.2094 14.5784C22.7536 16.1734 21.2409 18.7935 19.0875 18.2537C17.1471 17.7674 15.1709 18.9083 14.6219 20.8319C14.0127 22.9667 10.9873 22.9667 10.378 20.8319C9.82906 18.9083 7.8528 17.7674 5.91243 18.2537C3.75904 18.7935 2.24633 16.1734 3.79049 14.5784C5.18189 13.1412 5.18189 10.8592 3.79049 9.422C2.24633 7.82699 3.75904 5.20691 5.91243 5.74668C7.8528 6.23306 9.82906 5.09207 10.378 3.16847Z" fill="#2D264B"/>
</svg>
