<svg width="25" height="24" viewBox="0 0 25 24" fill="none" xmlns="http://www.w3.org/2000/svg">
<g clip-path="url(#clip0_789_45325)">
<path fill-rule="evenodd" clip-rule="evenodd" d="M12.5 4C10.4289 4 8.75 5.67893 8.75 7.75C8.75 9.82107 10.4289 11.5 12.5 11.5C14.5711 11.5 16.25 9.82107 16.25 7.75C16.25 5.67893 14.5711 4 12.5 4ZM10.25 7.75C10.25 6.50736 11.2574 5.5 12.5 5.5C13.7426 5.5 14.75 6.50736 14.75 7.75C14.75 8.99264 13.7426 10 12.5 10C11.2574 10 10.25 8.99264 10.25 7.75Z" fill="#2D264B"/>
<path fill-rule="evenodd" clip-rule="evenodd" d="M9.5 13C7.42893 13 5.75 14.6789 5.75 16.75C5.75 18.8211 7.42893 20.5 9.5 20.5H15.5C17.5711 20.5 19.25 18.8211 19.25 16.75C19.25 14.6789 17.5711 13 15.5 13H9.5ZM7.25 16.75C7.25 15.5074 8.25736 14.5 9.5 14.5H15.5C16.7426 14.5 17.75 15.5074 17.75 16.75C17.75 17.9926 16.7426 19 15.5 19H9.5C8.25736 19 7.25 17.9926 7.25 16.75Z" fill="#2D264B"/>
<path d="M8.25214 10.3887C8.09441 10.1353 7.79846 10 7.5 10C6.25736 10 5.25 8.99264 5.25 7.75C5.25 6.50736 6.25736 5.5 7.5 5.5C7.79846 5.5 8.09441 5.36473 8.25214 5.11135C8.25912 5.10014 8.26613 5.08896 8.2732 5.07782C8.5358 4.66331 8.40275 4.0764 7.915 4.0227C7.77873 4.0077 7.64027 4 7.5 4C5.42893 4 3.75 5.67893 3.75 7.75C3.75 9.82107 5.42893 11.5 7.5 11.5C7.64027 11.5 7.77873 11.4923 7.915 11.4773C8.40275 11.4236 8.5358 10.8367 8.2732 10.4222C8.26614 10.411 8.25912 10.3999 8.25214 10.3887Z" fill="#2D264B"/>
<path d="M5.20829 18.3169C5.09477 18.1275 4.89439 18 4.67359 18H4.5C3.25736 18 2.25 16.9926 2.25 15.75C2.25 14.5074 3.25736 13.5 4.5 13.5H4.67359C4.89439 13.5 5.09477 13.3725 5.20829 13.1831C5.48539 12.7208 5.18468 12 4.64569 12H4.5C2.42893 12 0.75 13.6789 0.75 15.75C0.75 17.8211 2.42893 19.5 4.5 19.5H4.64569C5.18469 19.5 5.48539 18.7792 5.20829 18.3169Z" fill="#2D264B"/>
<path d="M16.7268 10.4222C16.4642 10.8367 16.5973 11.4236 17.085 11.4773C17.2213 11.4923 17.3597 11.5 17.5 11.5C19.5711 11.5 21.25 9.82107 21.25 7.75C21.25 5.67893 19.5711 4 17.5 4C17.3597 4 17.2213 4.0077 17.085 4.0227C16.5973 4.0764 16.4642 4.66331 16.7268 5.07782C16.7339 5.08896 16.7409 5.10014 16.7479 5.11134C16.9056 5.36472 17.2015 5.5 17.5 5.5C18.7426 5.5 19.75 6.50736 19.75 7.75C19.75 8.99264 18.7426 10 17.5 10C17.2015 10 16.9056 10.1353 16.7479 10.3887C16.7409 10.3999 16.7339 10.411 16.7268 10.4222Z" fill="#2D264B"/>
<path d="M19.7917 18.3169C19.5146 18.7792 19.8153 19.5 20.3543 19.5H20.5C22.5711 19.5 24.25 17.8211 24.25 15.75C24.25 13.6789 22.5711 12 20.5 12H20.3543C19.8153 12 19.5146 12.7208 19.7917 13.1831C19.9052 13.3725 20.1056 13.5 20.3264 13.5H20.5C21.7426 13.5 22.75 14.5074 22.75 15.75C22.75 16.9926 21.7426 18 20.5 18H20.3264C20.1056 18 19.9052 18.1275 19.7917 18.3169Z" fill="#2D264B"/>
<path fill-rule="evenodd" clip-rule="evenodd" d="M12.5 4C10.4289 4 8.75 5.67893 8.75 7.75C8.75 9.82107 10.4289 11.5 12.5 11.5C14.5711 11.5 16.25 9.82107 16.25 7.75C16.25 5.67893 14.5711 4 12.5 4ZM10.25 7.75C10.25 6.50736 11.2574 5.5 12.5 5.5C13.7426 5.5 14.75 6.50736 14.75 7.75C14.75 8.99264 13.7426 10 12.5 10C11.2574 10 10.25 8.99264 10.25 7.75Z" stroke="#000001"/>
<path fill-rule="evenodd" clip-rule="evenodd" d="M9.5 13C7.42893 13 5.75 14.6789 5.75 16.75C5.75 18.8211 7.42893 20.5 9.5 20.5H15.5C17.5711 20.5 19.25 18.8211 19.25 16.75C19.25 14.6789 17.5711 13 15.5 13H9.5ZM7.25 16.75C7.25 15.5074 8.25736 14.5 9.5 14.5H15.5C16.7426 14.5 17.75 15.5074 17.75 16.75C17.75 17.9926 16.7426 19 15.5 19H9.5C8.25736 19 7.25 17.9926 7.25 16.75Z" stroke="#000001"/>
<path d="M8.25214 10.3887C8.09441 10.1353 7.79846 10 7.5 10C6.25736 10 5.25 8.99264 5.25 7.75C5.25 6.50736 6.25736 5.5 7.5 5.5C7.79846 5.5 8.09441 5.36473 8.25214 5.11135C8.25912 5.10014 8.26613 5.08896 8.2732 5.07782C8.5358 4.66331 8.40275 4.0764 7.915 4.0227C7.77873 4.0077 7.64027 4 7.5 4C5.42893 4 3.75 5.67893 3.75 7.75C3.75 9.82107 5.42893 11.5 7.5 11.5C7.64027 11.5 7.77873 11.4923 7.915 11.4773C8.40275 11.4236 8.5358 10.8367 8.2732 10.4222C8.26614 10.411 8.25912 10.3999 8.25214 10.3887Z" stroke="#000001"/>
<path d="M5.20829 18.3169C5.09477 18.1275 4.89439 18 4.67359 18H4.5C3.25736 18 2.25 16.9926 2.25 15.75C2.25 14.5074 3.25736 13.5 4.5 13.5H4.67359C4.89439 13.5 5.09477 13.3725 5.20829 13.1831C5.48539 12.7208 5.18468 12 4.64569 12H4.5C2.42893 12 0.75 13.6789 0.75 15.75C0.75 17.8211 2.42893 19.5 4.5 19.5H4.64569C5.18469 19.5 5.48539 18.7792 5.20829 18.3169Z" stroke="#000001"/>
<path d="M16.7268 10.4222C16.4642 10.8367 16.5973 11.4236 17.085 11.4773C17.2213 11.4923 17.3597 11.5 17.5 11.5C19.5711 11.5 21.25 9.82107 21.25 7.75C21.25 5.67893 19.5711 4 17.5 4C17.3597 4 17.2213 4.0077 17.085 4.0227C16.5973 4.0764 16.4642 4.66331 16.7268 5.07782C16.7339 5.08896 16.7409 5.10014 16.7479 5.11134C16.9056 5.36472 17.2015 5.5 17.5 5.5C18.7426 5.5 19.75 6.50736 19.75 7.75C19.75 8.99264 18.7426 10 17.5 10C17.2015 10 16.9056 10.1353 16.7479 10.3887C16.7409 10.3999 16.7339 10.411 16.7268 10.4222Z" stroke="#000001"/>
<path d="M19.7917 18.3169C19.5146 18.7792 19.8153 19.5 20.3543 19.5H20.5C22.5711 19.5 24.25 17.8211 24.25 15.75C24.25 13.6789 22.5711 12 20.5 12H20.3543C19.8153 12 19.5146 12.7208 19.7917 13.1831C19.9052 13.3725 20.1056 13.5 20.3264 13.5H20.5C21.7426 13.5 22.75 14.5074 22.75 15.75C22.75 16.9926 21.7426 18 20.5 18H20.3264C20.1056 18 19.9052 18.1275 19.7917 18.3169Z" stroke="#000001"/>
</g>
<defs>
<clipPath id="clip0_789_45325">
<rect width="24" height="24" fill="white" transform="translate(0.5)"/>
</clipPath>
</defs>
</svg>
