<svg width="25" height="24" viewBox="0 0 25 24" fill="none" xmlns="http://www.w3.org/2000/svg">
<path d="M21.25 10C21.25 9.58579 20.9142 9.25 20.5 9.25C20.0858 9.25 19.75 9.58579 19.75 10H21.25ZM5.25 10C5.25 9.58579 4.91421 9.25 4.5 9.25C4.08579 9.25 3.75 9.58579 3.75 10H5.25ZM10.3181 21.2724C9.91625 21.3729 9.67193 21.7801 9.77239 22.1819C9.87285 22.5837 10.2801 22.8281 10.6819 22.7276L10.3181 21.2724ZM11.2873 21.8032L11.1054 21.0756L11.2873 21.8032ZM13.7127 21.8032L13.8946 21.0756L13.7127 21.8032ZM14.3181 22.7276C14.7199 22.8281 15.1271 22.5837 15.2276 22.1819C15.3281 21.7801 15.0837 21.3729 14.6819 21.2724L14.3181 22.7276ZM10.7628 9.28849C10.3699 9.41947 10.1575 9.84421 10.2885 10.2372C10.4195 10.6301 10.8442 10.8425 11.2372 10.7115L10.7628 9.28849ZM11.2351 9.92164L10.9979 9.21012L11.2351 9.92164ZM13.7649 9.92164L13.5277 10.6331L13.5277 10.6332L13.7649 9.92164ZM13.7628 10.7115C14.1558 10.8425 14.5805 10.6301 14.7115 10.2372C14.8425 9.84421 14.6301 9.41947 14.2372 9.28849L13.7628 10.7115ZM10.3181 5.77239C9.91625 5.87286 9.67193 6.28006 9.77239 6.6819C9.87285 7.08375 10.2801 7.32807 10.6819 7.22761L10.3181 5.77239ZM11.2873 6.30317L11.1054 5.57556L11.2873 6.30317ZM13.7127 6.30317L13.8946 5.57556L13.7127 6.30317ZM14.3181 7.22761C14.7199 7.32807 15.1271 7.08375 15.2276 6.6819C15.3281 6.28006 15.0837 5.87285 14.6819 5.77239L14.3181 7.22761ZM12.5 21.6539V22.4039V21.6539ZM15.75 6V10H17.25V6H15.75ZM9.25 10V6H7.75V10H9.25ZM12.5 13.25C10.7051 13.25 9.25 11.7949 9.25 10H7.75C7.75 12.6234 9.87665 14.75 12.5 14.75V13.25ZM15.75 10C15.75 11.7949 14.2949 13.25 12.5 13.25V14.75C15.1234 14.75 17.25 12.6234 17.25 10H15.75ZM12.5 2.75C14.2949 2.75 15.75 4.20507 15.75 6H17.25C17.25 3.37665 15.1234 1.25 12.5 1.25V2.75ZM12.5 1.25C9.87665 1.25 7.75 3.37665 7.75 6H9.25C9.25 4.20507 10.7051 2.75 12.5 2.75V1.25ZM19.75 10C19.75 14.0041 16.5041 17.25 12.5 17.25V18.75C17.3325 18.75 21.25 14.8325 21.25 10H19.75ZM12.5 17.25C8.49594 17.25 5.25 14.0041 5.25 10H3.75C3.75 14.8325 7.66751 18.75 12.5 18.75V17.25ZM11.75 19V21H13.25V19H11.75ZM10.6819 22.7276L11.4692 22.5308L11.1054 21.0756L10.3181 21.2724L10.6819 22.7276ZM13.5308 22.5308L14.3181 22.7276L14.6819 21.2724L13.8946 21.0756L13.5308 22.5308ZM11.2372 10.7115L11.4723 10.6331L10.9979 9.21012L10.7628 9.28849L11.2372 10.7115ZM13.5277 10.6332L13.7628 10.7115L14.2372 9.28849L14.0021 9.21012L13.5277 10.6332ZM11.4723 10.6331C12.1394 10.4108 12.8606 10.4108 13.5277 10.6331L14.0021 9.21012C13.0271 8.88512 11.9729 8.88512 10.9979 9.21012L11.4723 10.6331ZM10.6819 7.22761L11.4692 7.03078L11.1054 5.57556L10.3181 5.77239L10.6819 7.22761ZM13.5308 7.03078L14.3181 7.22761L14.6819 5.77239L13.8946 5.57556L13.5308 7.03078ZM11.4692 7.03078C12.146 6.86158 12.854 6.86158 13.5308 7.03078L13.8946 5.57556C12.979 5.34666 12.0211 5.34666 11.1054 5.57556L11.4692 7.03078ZM13.25 19V18H11.75V19H13.25ZM11.4692 22.5308C11.8076 22.4462 12.1538 22.4039 12.5 22.4039V20.9039C12.0316 20.9039 11.5632 20.9611 11.1054 21.0756L11.4692 22.5308ZM12.5 22.4039C12.8462 22.4039 13.1924 22.4462 13.5308 22.5308L13.8946 21.0756C13.4368 20.9611 12.9684 20.9039 12.5 20.9039V22.4039ZM11.75 21V21.6539H13.25V21H11.75Z" fill="#000001"/>
</svg>
