<svg width="25" height="24" viewBox="0 0 25 24" fill="none" xmlns="http://www.w3.org/2000/svg">
<path d="M15.75 6C15.75 7.79493 14.2949 9.25 12.5 9.25V10.75C15.1234 10.75 17.25 8.62335 17.25 6H15.75ZM12.5 9.25C10.7051 9.25 9.25 7.79493 9.25 6H7.75C7.75 8.62335 9.87665 10.75 12.5 10.75V9.25ZM9.25 6C9.25 4.20507 10.7051 2.75 12.5 2.75V1.25C9.87665 1.25 7.75 3.37665 7.75 6H9.25ZM12.5 2.75C14.2949 2.75 15.75 4.20507 15.75 6H17.25C17.25 3.37665 15.1234 1.25 12.5 1.25V2.75ZM9.5 13.75H15.5V12.25H9.5V13.75ZM15.5 20.25H9.5V21.75H15.5V20.25ZM9.5 20.25C7.70507 20.25 6.25 18.7949 6.25 17H4.75C4.75 19.6234 6.87665 21.75 9.5 21.75V20.25ZM18.75 17C18.75 18.7949 17.2949 20.25 15.5 20.25V21.75C18.1234 21.75 20.25 19.6234 20.25 17H18.75ZM15.5 13.75C17.2949 13.75 18.75 15.2051 18.75 17H20.25C20.25 14.3766 18.1234 12.25 15.5 12.25V13.75ZM9.5 12.25C6.87665 12.25 4.75 14.3766 4.75 17H6.25C6.25 15.2051 7.70507 13.75 9.5 13.75V12.25Z" fill="#000001"/>
</svg>
