<svg width="25" height="24" viewBox="0 0 25 24" fill="none" xmlns="http://www.w3.org/2000/svg">
<path fill-rule="evenodd" clip-rule="evenodd" d="M11.5 6.25C9.98122 6.25 8.75 7.48122 8.75 9C8.75 10.5188 9.98122 11.75 11.5 11.75C13.0188 11.75 14.25 10.5188 14.25 9C14.25 7.48122 13.0188 6.25 11.5 6.25ZM10.25 9C10.25 8.30964 10.8096 7.75 11.5 7.75C12.1904 7.75 12.75 8.30964 12.75 9C12.75 9.69036 12.1904 10.25 11.5 10.25C10.8096 10.25 10.25 9.69036 10.25 9Z" fill="#2D264B"/>
<path fill-rule="evenodd" clip-rule="evenodd" d="M16.9635 2.37373C15.8214 2.24999 14.3818 2.24999 12.5452 2.25H12.4548C10.6182 2.24999 9.17861 2.24999 8.03648 2.37373C6.87094 2.50001 5.92656 2.76232 5.12024 3.34815C4.63209 3.70281 4.20281 4.13209 3.84815 4.62024C3.26232 5.42656 3.00001 6.37094 2.87373 7.53648C2.74999 8.67861 2.74999 10.1182 2.75 11.9548V12.0452C2.74999 13.8818 2.74999 15.3214 2.87373 16.4635C3.00001 17.6291 3.26232 18.5734 3.84815 19.3798C3.86102 19.3975 3.87399 19.4151 3.88706 19.4327C4.23405 19.899 4.64981 20.3101 5.12024 20.6518C5.92656 21.2377 6.87094 21.5 8.03648 21.6263C9.17859 21.75 10.6182 21.75 12.4547 21.75H12.5453C14.3818 21.75 15.8214 21.75 16.9635 21.6263C18.1291 21.5 19.0734 21.2377 19.8798 20.6518C20.3679 20.2972 20.7972 19.8679 21.1518 19.3798C22.0217 18.1825 22.1903 16.6546 22.2348 14.5005C22.25 13.7682 22.25 12.9403 22.25 12.006V11.9547C22.25 10.1182 22.25 8.67859 22.1263 7.53648C22 6.37094 21.7377 5.42656 21.1518 4.62024C20.7972 4.13209 20.3679 3.70281 19.8798 3.34815C19.0734 2.76232 18.1291 2.50001 16.9635 2.37373ZM6.00191 4.56168C6.50992 4.19259 7.16013 3.97745 8.19804 3.865C9.24999 3.75103 10.6084 3.75 12.5 3.75C14.3916 3.75 15.75 3.75103 16.802 3.865C17.8399 3.97745 18.4901 4.19259 18.9981 4.56168C19.3589 4.82382 19.6762 5.14111 19.9383 5.50191C20.3074 6.00992 20.5225 6.66013 20.635 7.69804C20.749 8.74999 20.75 10.1084 20.75 12C20.75 12.255 20.75 12.5006 20.7497 12.7373C20.6438 12.6476 20.5435 12.5687 20.4448 12.4986C17.9737 10.7441 14.5651 11.2087 12.6537 13.5606C12.4951 13.7558 12.3432 13.9843 12.1711 14.2694L12.0462 14.2444C10.9471 14.0244 10.274 13.8897 9.64216 13.9032C7.95369 13.939 6.36636 14.7154 5.30143 16.0261C5.03101 16.359 4.80278 16.7487 4.52741 17.2781C4.45858 16.9948 4.40522 16.6732 4.365 16.302C4.25103 15.25 4.25 13.8916 4.25 12C4.25 10.1084 4.25103 8.74999 4.365 7.69804C4.47745 6.66013 4.69259 6.00992 5.06168 5.50191C5.32382 5.14111 5.64111 4.82382 6.00191 4.56168ZM19.5764 13.7217C19.8239 13.8974 20.1104 14.1728 20.7273 14.7882C20.6701 16.7589 20.472 17.7636 19.9383 18.4981C19.6762 18.8589 19.3589 19.1762 18.9981 19.4383C18.4901 19.8074 17.8399 20.0225 16.802 20.135C15.75 20.249 14.3916 20.25 12.5 20.25C11.7582 20.25 11.0984 20.2498 10.5069 20.2428L12.8256 16.1404C12.9556 15.9105 13.0685 15.7108 13.1693 15.5345C13.4887 14.9758 13.6615 14.699 13.8178 14.5066C15.2305 12.7683 17.75 12.4249 19.5764 13.7217ZM8.84708 20.131C8.83655 20.1496 8.8269 20.1685 8.81812 20.1876C8.59986 20.1735 8.39365 20.1562 8.19804 20.135C7.16013 20.0225 6.50992 19.8074 6.00191 19.4383C5.78075 19.2776 5.57593 19.0962 5.39014 18.8968C5.95192 17.7732 6.18417 17.3184 6.46564 16.972C7.25276 16.0031 8.42601 15.4293 9.67401 15.4028C10.0589 15.3947 10.4843 15.4647 11.3842 15.6422L8.84708 20.131Z" fill="#2D264B"/>
<path fill-rule="evenodd" clip-rule="evenodd" d="M11.5 6.25C9.98122 6.25 8.75 7.48122 8.75 9C8.75 10.5188 9.98122 11.75 11.5 11.75C13.0188 11.75 14.25 10.5188 14.25 9C14.25 7.48122 13.0188 6.25 11.5 6.25ZM10.25 9C10.25 8.30964 10.8096 7.75 11.5 7.75C12.1904 7.75 12.75 8.30964 12.75 9C12.75 9.69036 12.1904 10.25 11.5 10.25C10.8096 10.25 10.25 9.69036 10.25 9Z" stroke="#000001"/>
<path fill-rule="evenodd" clip-rule="evenodd" d="M16.9635 2.37373C15.8214 2.24999 14.3818 2.24999 12.5452 2.25H12.4548C10.6182 2.24999 9.17861 2.24999 8.03648 2.37373C6.87094 2.50001 5.92656 2.76232 5.12024 3.34815C4.63209 3.70281 4.20281 4.13209 3.84815 4.62024C3.26232 5.42656 3.00001 6.37094 2.87373 7.53648C2.74999 8.67861 2.74999 10.1182 2.75 11.9548V12.0452C2.74999 13.8818 2.74999 15.3214 2.87373 16.4635C3.00001 17.6291 3.26232 18.5734 3.84815 19.3798C3.86102 19.3975 3.87399 19.4151 3.88706 19.4327C4.23405 19.899 4.64981 20.3101 5.12024 20.6518C5.92656 21.2377 6.87094 21.5 8.03648 21.6263C9.17859 21.75 10.6182 21.75 12.4547 21.75H12.5453C14.3818 21.75 15.8214 21.75 16.9635 21.6263C18.1291 21.5 19.0734 21.2377 19.8798 20.6518C20.3679 20.2972 20.7972 19.8679 21.1518 19.3798C22.0217 18.1825 22.1903 16.6546 22.2348 14.5005C22.25 13.7682 22.25 12.9403 22.25 12.006V11.9547C22.25 10.1182 22.25 8.67859 22.1263 7.53648C22 6.37094 21.7377 5.42656 21.1518 4.62024C20.7972 4.13209 20.3679 3.70281 19.8798 3.34815C19.0734 2.76232 18.1291 2.50001 16.9635 2.37373ZM6.00191 4.56168C6.50992 4.19259 7.16013 3.97745 8.19804 3.865C9.24999 3.75103 10.6084 3.75 12.5 3.75C14.3916 3.75 15.75 3.75103 16.802 3.865C17.8399 3.97745 18.4901 4.19259 18.9981 4.56168C19.3589 4.82382 19.6762 5.14111 19.9383 5.50191C20.3074 6.00992 20.5225 6.66013 20.635 7.69804C20.749 8.74999 20.75 10.1084 20.75 12C20.75 12.255 20.75 12.5006 20.7497 12.7373C20.6438 12.6476 20.5435 12.5687 20.4448 12.4986C17.9737 10.7441 14.5651 11.2087 12.6537 13.5606C12.4951 13.7558 12.3432 13.9843 12.1711 14.2694L12.0462 14.2444C10.9471 14.0244 10.274 13.8897 9.64216 13.9032C7.95369 13.939 6.36636 14.7154 5.30143 16.0261C5.03101 16.359 4.80278 16.7487 4.52741 17.2781C4.45858 16.9948 4.40522 16.6732 4.365 16.302C4.25103 15.25 4.25 13.8916 4.25 12C4.25 10.1084 4.25103 8.74999 4.365 7.69804C4.47745 6.66013 4.69259 6.00992 5.06168 5.50191C5.32382 5.14111 5.64111 4.82382 6.00191 4.56168ZM19.5764 13.7217C19.8239 13.8974 20.1104 14.1728 20.7273 14.7882C20.6701 16.7589 20.472 17.7636 19.9383 18.4981C19.6762 18.8589 19.3589 19.1762 18.9981 19.4383C18.4901 19.8074 17.8399 20.0225 16.802 20.135C15.75 20.249 14.3916 20.25 12.5 20.25C11.7582 20.25 11.0984 20.2498 10.5069 20.2428L12.8256 16.1404C12.9556 15.9105 13.0685 15.7108 13.1693 15.5345C13.4887 14.9758 13.6615 14.699 13.8178 14.5066C15.2305 12.7683 17.75 12.4249 19.5764 13.7217ZM8.84708 20.131C8.83655 20.1496 8.8269 20.1685 8.81812 20.1876C8.59986 20.1735 8.39365 20.1562 8.19804 20.135C7.16013 20.0225 6.50992 19.8074 6.00191 19.4383C5.78075 19.2776 5.57593 19.0962 5.39014 18.8968C5.95192 17.7732 6.18417 17.3184 6.46564 16.972C7.25276 16.0031 8.42601 15.4293 9.67401 15.4028C10.0589 15.3947 10.4843 15.4647 11.3842 15.6422L8.84708 20.131Z" stroke="#000001"/>
</svg>
